<svg xmlns="http://www.w3.org/2000/svg" width="428" height="363" fill="none" viewBox="0 0 428 363">
  <path fill="#8AF5D1" fill-rule="evenodd" d="m283.226 0 144.183 124.144H136.558L143.37 0h139.856Z" clip-rule="evenodd"/>
  <path fill="#84AAA3" d="M288.486 122.961H0v240.011h288.486V122.961Z"/>
  <path fill="#014451" d="M428 122.961H288.486v240.011H428V122.961ZM173.801 267.205h-59.707v95.768h59.707v-95.768Z"/>
  <path fill="#F7F9F9" d="M74.782 266.022h-30.74c-8 0-14.484 6.484-14.484 14.483v30.741c0 7.999 6.485 14.483 14.483 14.483h30.74c8 0 14.484-6.484 14.484-14.483v-30.741c0-7.999-6.484-14.483-14.483-14.483Zm.295-100.497H43.746c-7.836 0-14.188 6.352-14.188 14.188v31.331c0 7.836 6.352 14.188 14.188 14.188h31.331c7.836 0 14.188-6.352 14.188-14.188v-31.331c0-7.836-6.352-14.188-14.188-14.188Zm168.777 100.497h-30.741c-7.999 0-14.483 6.484-14.483 14.483v30.741c0 7.999 6.484 14.483 14.483 14.483h30.741c7.999 0 14.483-6.484 14.483-14.483v-30.741c0-7.999-6.484-14.483-14.483-14.483Zm.295-100.497h-31.331c-7.836 0-14.188 6.352-14.188 14.188v31.331c0 7.836 6.352 14.188 14.188 14.188h31.331c7.836 0 14.188-6.352 14.188-14.188v-31.331c0-7.836-6.352-14.188-14.188-14.188Zm-84.536 0h-31.331c-7.836 0-14.188 6.352-14.188 14.188v31.331c0 7.836 6.352 14.188 14.188 14.188h31.331c7.836 0 14.188-6.352 14.188-14.188v-31.331c0-7.836-6.352-14.188-14.188-14.188Z"/>
  <path fill="#8AF5D1" d="M373.613 165.525h-31.331c-7.836 0-14.188 6.352-14.188 14.188v31.331c0 7.836 6.352 14.188 14.188 14.188h31.331c7.836 0 14.188-6.352 14.188-14.188v-31.331c0-7.836-6.352-14.188-14.188-14.188Zm-.295 100.497h-30.741c-7.999 0-14.483 6.484-14.483 14.483v30.741c0 7.999 6.484 14.483 14.483 14.483h30.741c7.999 0 14.483-6.484 14.483-14.483v-30.741c0-7.999-6.484-14.483-14.483-14.483Z"/>
  <path fill="#84AAA3" fill-rule="evenodd" d="m144.243 0 144.243 124.144H0L144.243 0Z" clip-rule="evenodd"/>
  <path fill="#F7F9F9" d="M159.613 60.89h-31.331c-7.836 0-14.188 6.352-14.188 14.188v31.331c0 7.836 6.352 14.188 14.188 14.188h31.331c7.836 0 14.188-6.352 14.188-14.188V75.077c0-7.835-6.352-14.187-14.188-14.187Z"/>
</svg>
