<svg xmlns="http://www.w3.org/2000/svg" width="428" height="594" fill="none" viewBox="0 0 428 594">
  <path fill="#84AAA3" fill-rule="evenodd" d="M122.38 147.63 164.43 2.352a2.354 2.354 0 0 1 2.916-1.607l145.279 42.05a2.354 2.354 0 0 1 1.607 2.916l-42.051 145.28a2.353 2.353 0 0 1-2.916 1.607l-145.278-42.051a2.354 2.354 0 0 1-1.607-2.917ZM309.054 46.663 168.298 5.922l-40.742 140.754 140.756 40.743 40.742-140.756Z" clip-rule="evenodd"/>
  <path fill="#84AAA3" d="M187.888 69.826a2.376 2.376 0 0 1 3.055.716l.12.188 23.923 41.836a2.322 2.322 0 0 1-.892 3.18 2.378 2.378 0 0 1-3.094-.693l-.122-.19-22.784-39.845-47.688 25.482a2.375 2.375 0 0 1-3.079-.75l-.117-.194a2.316 2.316 0 0 1 .759-3.045l.195-.116 49.724-26.57Z"/>
  <path fill="#84AAA3" d="M239.897 95.666a2.335 2.335 0 0 1 3.042.728l.118.19 25.322 45.204a2.384 2.384 0 0 1-.888 3.232 2.335 2.335 0 0 1-3.079-.703l-.121-.193-24.188-43.181-72.155 39.366a2.336 2.336 0 0 1-3.066-.763l-.117-.196a2.389 2.389 0 0 1 .756-3.096l.194-.118 74.182-40.47Z"/>
  <path fill="#84AAA3" fill-rule="evenodd" d="M276.766 72.826c-2.049 7.08-9.449 11.157-16.528 9.106-7.08-2.047-11.158-9.448-9.109-16.527 2.049-7.08 9.45-11.158 16.529-9.109 7.08 2.05 11.157 9.45 9.108 16.53Z" clip-rule="evenodd"/>
  <path fill="#84AAA3" d="M342.335 230.544c.79.144 1.331.866 1.265 1.651l-.019.148-21.467 118.394a1.547 1.547 0 0 1-3.064-.405l.02-.147 21.19-116.873-115.349-20.913-20.913 115.35 74.339 13.478a1.55 1.55 0 0 1 1.266 1.651l-.02.147a1.548 1.548 0 0 1-1.651 1.266l-.147-.02-75.862-13.754a1.548 1.548 0 0 1-1.266-1.651l.02-.148 21.465-118.393a1.549 1.549 0 0 1 1.651-1.266l.147.02 118.395 21.465Z"/>
  <path fill="#84AAA3" fill-rule="evenodd" d="m254.073 301.969 8.511-45.121c.222-1.177 1.61-1.694 2.499-.932l34.075 29.225c.889.763.612 2.233-.499 2.648l-42.587 15.894c-1.111.415-2.221-.537-1.999-1.714Zm41.139-15.679-29.811-25.654-7.557 39.736 37.368-14.082Zm117.287 248.715c0 6.896-5.591 12.487-12.487 12.487s-12.487-5.591-12.487-12.487 5.591-12.486 12.487-12.486 12.487 5.59 12.487 12.486Z" clip-rule="evenodd"/>
  <path fill="#8AF5D1" fill-rule="evenodd" d="M328.966 188.386a7.751 7.751 0 1 1-15.502-.002 7.751 7.751 0 0 1 15.502.002Zm-258.35 77.936c0 12.603-10.219 22.82-22.822 22.82s-22.82-10.217-22.82-22.82c0-12.605 10.217-22.822 22.82-22.822s22.822 10.217 22.822 22.822Z" clip-rule="evenodd"/>
  <path fill="#84AAA3" d="M206.385 189.18a2.093 2.093 0 0 1 2.728.72l.101.175 13.286 25.624a2.112 2.112 0 0 1-.892 2.842 2.092 2.092 0 0 1-2.728-.72l-.101-.175-12.316-23.755-89.889 47.046 46.824 90.313 40.556-21.225a2.09 2.09 0 0 1 2.727.72l.102.175c.504.972.18 2.156-.716 2.741l-.175.102-42.417 22.199a2.091 2.091 0 0 1-2.727-.72l-.102-.175-48.762-94.052a2.114 2.114 0 0 1 .717-2.74l.174-.103 93.61-48.992Z"/>
  <path fill="#84AAA3" d="M155.026 262.382c1.011-.51 2.244-.181 2.852.728l.107.177 11.114 20.716c.559 1.043.143 2.328-.932 2.871-1.01.512-2.243.183-2.851-.727l-.106-.177-11.115-20.716c-.559-1.042-.142-2.328.931-2.872Zm7.708-13.78a2.119 2.119 0 0 1 2.745.716l.103.175 19.027 36.279a2.09 2.09 0 0 1-.897 2.829c-.973.504-2.16.18-2.745-.716l-.103-.174-19.027-36.281a2.089 2.089 0 0 1 .897-2.828Zm15.544 1.725c1.011-.512 2.243-.183 2.851.727l.107.177 11.114 20.715c.56 1.043.143 2.328-.932 2.872-1.01.511-2.243.182-2.851-.727l-.106-.177-11.115-20.716c-.559-1.043-.142-2.328.932-2.871Zm7.707-13.782a2.12 2.12 0 0 1 2.746.716l.102.175 19.028 36.279a2.09 2.09 0 0 1-.898 2.829 2.12 2.12 0 0 1-2.745-.716l-.102-.174-19.028-36.28a2.09 2.09 0 0 1 .897-2.829Zm15.545.864c1.011-.511 2.243-.182 2.851.727l.107.178 11.114 20.715c.56 1.043.143 2.329-.932 2.871-1.01.512-2.243.183-2.851-.726l-.106-.178-11.115-20.715c-.559-1.043-.142-2.329.932-2.872Zm225.7 351.42c.426 0 .77.963.77 2.153 0 1.118-.305 2.038-.696 2.143l-.074.009H.77c-.426 0-.77-.963-.77-2.152 0-1.119.305-2.039.696-2.144l.074-.009h426.46Z"/>
  <path fill="#84AAA3" fill-rule="evenodd" d="M58.326 401.094h301.875a2.35 2.35 0 0 1 2.35 2.349v187.343a2.349 2.349 0 0 1-2.35 2.348H58.326a2.35 2.35 0 0 1-2.35-2.348V403.443a2.35 2.35 0 0 1 2.35-2.349ZM357.85 588.437V405.792H60.674v182.645H357.85Z" clip-rule="evenodd"/>
  <path fill="#84AAA3" d="M152.857 401.094c1.119 0 2.038.932 2.143 2.123l.01.226v187.343c0 1.297-.964 2.348-2.153 2.348-1.119 0-2.038-.931-2.143-2.122l-.01-.226V403.443c0-1.297.964-2.349 2.153-2.349Z"/>
  <path fill="#84AAA3" fill-rule="evenodd" d="M26.474 348.563h94.734a2.36 2.36 0 0 1 2.032 1.153l31.439 53.011c.928 1.563-.206 3.534-2.03 3.534H57.914a2.36 2.36 0 0 1-2.031-1.153l-31.44-53.011c-.927-1.563.206-3.534 2.03-3.534Zm122.047 53.009-28.66-48.323H30.6l28.66 48.323h89.261Zm148.798-53.009h94.734c1.825 0 2.958 1.971 2.031 3.534l-31.44 53.011a2.358 2.358 0 0 1-2.031 1.153h-94.735c-1.824 0-2.958-1.971-2.03-3.534l31.439-53.011a2.36 2.36 0 0 1 2.032-1.153Zm61.947 53.009 28.659-48.323h-89.259l-28.661 48.323h89.261Z" clip-rule="evenodd"/>
  <path fill="#84AAA3" fill-rule="evenodd" d="M58.56 591.412h94.728V403.678H58.559v187.734Zm177.161-190.318h40.091a2.35 2.35 0 0 1 2.345 2.355v45.236c0 1.71-1.759 2.85-3.311 2.145l-19.08-8.665-19.079 8.665c-1.489.677-3.17-.347-3.302-1.943l-.009-.202v-45.236a2.35 2.35 0 0 1 2.345-2.355Zm37.745 43.941v-39.233h-35.4v39.233l16.734-7.598a2.343 2.343 0 0 1 1.699-.091l.234.091 16.733 7.598Zm-37.745 98.152h40.091a2.35 2.35 0 0 1 2.345 2.355v45.237a2.35 2.35 0 0 1-2.345 2.355h-40.091a2.35 2.35 0 0 1-2.345-2.355v-45.237a2.35 2.35 0 0 1 2.345-2.355Zm37.744 45.237v-40.528h-35.4v40.528h35.4Z" clip-rule="evenodd"/>
</svg>
