<svg xmlns="http://www.w3.org/2000/svg" width="428" height="226" fill="none" viewBox="0 0 428 226">
  <path fill="#84AAA3" fill-rule="evenodd" d="m216.675.543 166.232 224.7H50.443L216.675.543Z" clip-rule="evenodd"/>
  <path fill="#F7F9F9" fill-rule="evenodd" d="M217.116.543 233.95 5.44l32.872 62.14v.458l-16.404 21.36-16.404-21.36-17.185 21.36-17.185-21.36-16.404 21.36-16.285-21.204L217.116.543Z" clip-rule="evenodd"/>
  <path fill="#8AF5D1" fill-rule="evenodd" d="m310.491 66.207 60.843 82.344 33.047 11.375L428 225.243H192.982L310.491 66.207Z" clip-rule="evenodd"/>
  <path fill="#F7F9F9" fill-rule="evenodd" d="m309.833 66.207 10.622-2.81 32.049 60.222v.393l-14.082 18.293-14.082-18.293-14.753 18.293-14.753-18.293-14.082 18.293-13.98-18.16 43.061-57.938Z" clip-rule="evenodd"/>
  <path fill="#8AF5D1" fill-rule="evenodd" d="m109.866 76.59 109.866 148.653H0l23.461-53.635 27.553-15.39 58.852-79.629Z" clip-rule="evenodd"/>
  <path fill="#84AAA3" fill-rule="evenodd" d="m109.623 76.59 40.136 53.819v.369l-13.246 17.148-13.245-17.148-13.877 17.148-13.876-17.148-13.246 17.148-13.15-17.023 40.504-54.314Z" clip-rule="evenodd"/>
</svg>
