<svg xmlns="http://www.w3.org/2000/svg" width="428" height="425" fill="none" viewBox="0 0 428 425">
  <path fill="#84AAA3" fill-rule="evenodd" d="M68.579 97.198h21.844c28.945 0 52.41 23.745 52.41 53.038v51.601a1.43 1.43 0 0 1-1.42 1.438H68.579c-28.946 0-52.411-23.747-52.411-53.039 0-29.293 23.465-53.038 52.41-53.038Zm71.413 53.038c0-27.427-21.752-49.712-48.75-50.156l-.82-.006H68.58c-27.376 0-49.569 22.458-49.569 50.162s22.193 50.163 49.569 50.163h71.412l.001-50.163Z" clip-rule="evenodd"/>
  <path fill="#84AAA3" d="M99.952 134.094c.789 0 1.427.774 1.427 1.73 0 .898-.566 1.637-1.289 1.721l-.138.008h-39.75c-.789 0-1.428-.775-1.428-1.729 0-.9.566-1.639 1.29-1.722l.137-.008h39.751Zm0 25.366c.789 0 1.427.775 1.427 1.73 0 .899-.566 1.638-1.289 1.722l-.138.008h-39.75c-.789 0-1.428-.775-1.428-1.73 0-.899.566-1.638 1.29-1.721l.137-.009h39.751Z"/>
  <path fill="#84AAA3" fill-rule="evenodd" d="M89.865 277.068h73.15c28.284 0 51.212-22.972 51.212-51.31 0-28.337-22.928-51.308-51.212-51.308h-21.939c-28.283 0-51.211 22.971-51.211 51.308v51.31Z" clip-rule="evenodd"/>
  <path fill="#8AF5D1" fill-rule="evenodd" d="M138.227 225.182c0 3.821-3.093 6.918-6.909 6.918-3.815 0-6.909-3.097-6.909-6.918s3.094-6.918 6.909-6.918c3.816 0 6.909 3.097 6.909 6.918Zm21.879 0a6.913 6.913 0 0 1-6.909 6.918c-3.816 0-6.909-3.097-6.909-6.918s3.093-6.918 6.909-6.918a6.913 6.913 0 0 1 6.909 6.918Zm19.576 0c0 3.821-3.093 6.918-6.909 6.918s-6.909-3.097-6.909-6.918 3.093-6.918 6.909-6.918 6.909 3.097 6.909 6.918Z" clip-rule="evenodd"/>
  <path fill="#84AAA3" d="M427.999 79.017v49.09c0 .896-.683 1.632-1.558 1.717l-.166.007H232.793a1.724 1.724 0 0 1-.166-3.44l.166-.008 191.758-.001V82.457H232.793a1.724 1.724 0 0 1-1.716-1.558l-.008-.166c0-.896.684-1.633 1.558-1.716l.166-.008 195.206.008Z"/>
  <path fill="#84AAA3" d="M426.275 126.383c.897 0 1.633.684 1.717 1.558l.008.166v180.015c0 .897-.684 1.633-1.558 1.717l-.167.008H284.311a1.725 1.725 0 0 1-.166-3.441l.166-.008h140.24l.001-178.291c0-.896.683-1.633 1.558-1.717l.165-.007Zm-34.551-31.16a1.725 1.725 0 0 1 2.308-.118l.13.118 14.689 14.69a1.724 1.724 0 0 1-2.307 2.557l-.132-.119-14.688-14.689a1.725 1.725 0 0 1 0-2.439Z"/>
  <path fill="#84AAA3" d="M406.413 95.224a1.723 1.723 0 0 1 2.556 2.307l-.118.131-14.688 14.69a1.726 1.726 0 0 1-2.557-2.308l.118-.131 14.689-14.69Z"/>
  <path fill="#84AAA3" fill-rule="evenodd" d="M373.178 177.811a7.577 7.577 0 1 1-15.154 0 7.577 7.577 0 0 1 15.154 0Zm-38.219 0a7.577 7.577 0 1 1-15.152 0 7.577 7.577 0 0 1 15.152 0Zm-38.217 0a7.577 7.577 0 1 1-15.153 0 7.577 7.577 0 0 1 15.153 0Zm76.436 37.614a7.577 7.577 0 1 1-15.155 0 7.577 7.577 0 0 1 15.155 0Zm-38.219 0a7.577 7.577 0 1 1-15.153 0 7.577 7.577 0 0 1 15.153 0Zm-38.217 0a7.576 7.576 0 0 1-7.576 7.577 7.577 7.577 0 1 1 0-15.153 7.575 7.575 0 0 1 7.576 7.576Zm76.436 37.615a7.577 7.577 0 1 1-15.155.001 7.577 7.577 0 0 1 15.155-.001Zm-38.219 0a7.576 7.576 0 1 1-15.153 0 7.576 7.576 0 1 1 15.153 0Z" clip-rule="evenodd"/>
  <path fill="#84AAA3" d="M286.699 380.139c3.122 0 5.707.922 8.025 2.693 1.66 1.268 2.779 2.507 5.007 5.333l.695.878c4.139 5.185 6.476 6.848 11.011 6.848.633 0 1.146.529 1.146 1.181 0 .653-.513 1.181-1.146 1.181-3.122 0-5.706-.921-8.025-2.693l-.325-.253c-1.488-1.186-2.603-2.442-4.682-5.079l-.694-.878c-4.14-5.186-6.478-6.848-11.012-6.848-4.535 0-6.873 1.662-11.012 6.848l-1.126 1.422c-1.948 2.447-3.027 3.605-4.576 4.788-2.319 1.772-4.903 2.693-8.025 2.693-3.123 0-5.707-.921-8.026-2.693l-.324-.253c-1.488-1.187-2.603-2.442-4.682-5.079l-.226-.288c-4.437-5.65-6.776-7.438-11.479-7.438-4.618 0-6.957 1.724-11.243 7.139l-.894 1.131c-1.948 2.447-3.026 3.605-4.574 4.788-2.319 1.772-4.903 2.693-8.025 2.693-3.123 0-5.707-.921-8.025-2.693l-.325-.253c-1.488-1.187-2.602-2.442-4.682-5.079l-.462-.587-.46-.576c-3.998-4.962-6.332-6.563-10.781-6.563-.633 0-1.146-.529-1.146-1.181 0-.653.513-1.182 1.146-1.182 3.121 0 5.705.922 8.024 2.693l.325.254c1.435 1.144 2.522 2.352 4.462 4.801l.445.565c4.437 5.651 6.777 7.439 11.479 7.439 4.534 0 6.871-1.662 11.01-6.847l1.352-1.707c1.808-2.254 2.861-3.368 4.349-4.505 2.319-1.771 4.903-2.693 8.025-2.693 3.123 0 5.707.922 8.026 2.693 1.659 1.268 2.778 2.507 5.006 5.333l.694.878c4.139 5.186 6.476 6.848 11.011 6.848 4.535 0 6.872-1.663 11.012-6.848l1.331-1.68c1.82-2.272 2.876-3.389 4.37-4.531 2.319-1.771 4.903-2.693 8.026-2.693Zm0 26.348c3.122 0 5.707.922 8.025 2.694l.326.253c1.329 1.06 2.359 2.173 4.045 4.277l1.331 1.68c4.139 5.186 6.476 6.848 11.011 6.848.633 0 1.146.529 1.146 1.181 0 .653-.513 1.182-1.146 1.182-3.122 0-5.706-.922-8.025-2.694l-.325-.253c-1.488-1.186-2.603-2.441-4.682-5.079l-.227-.288c-4.437-5.65-6.776-7.438-11.479-7.438-4.619 0-6.958 1.724-11.244 7.139l-.894 1.132c-1.948 2.446-3.027 3.604-4.576 4.787-2.319 1.772-4.903 2.694-8.025 2.694-3.123 0-5.707-.922-8.026-2.694l-.324-.253c-1.488-1.186-2.603-2.441-4.682-5.079l-.226-.288c-4.437-5.65-6.776-7.438-11.479-7.438-4.618 0-6.957 1.724-11.243 7.139l-.894 1.132c-1.948 2.446-3.026 3.604-4.574 4.787-2.319 1.772-4.903 2.694-8.025 2.694-3.123 0-5.707-.922-8.025-2.694l-.325-.253c-1.488-1.187-2.602-2.441-4.682-5.079l-.462-.587-.46-.576c-3.998-4.962-6.332-6.563-10.781-6.563-.633 0-1.146-.529-1.146-1.181 0-.653.513-1.182 1.146-1.182 3.121 0 5.705.922 8.024 2.694l.325.253c1.435 1.144 2.522 2.352 4.462 4.801l.445.565c4.437 5.651 6.777 7.439 11.479 7.439 4.534 0 6.871-1.662 11.01-6.847l1.352-1.707c1.808-2.254 2.861-3.368 4.349-4.504 2.319-1.772 4.903-2.694 8.025-2.694 3.123 0 5.707.922 8.026 2.694l.324.253c1.489 1.187 2.602 2.441 4.682 5.079l.694.879c4.139 5.185 6.476 6.847 11.011 6.847 4.535 0 6.872-1.662 11.012-6.848l1.331-1.68c1.82-2.272 2.876-3.389 4.37-4.53 2.319-1.772 4.903-2.694 8.026-2.694Z"/>
  <path fill="#84AAA3" fill-rule="evenodd" d="M214.901 2.682H14.821c-7.18 0-13.002 5.821-13.002 13.002v335.488c0 7.18 5.821 13.001 13.002 13.001H214.9c7.18 0 13.002-5.821 13.002-13.001V15.684c0-7.18-5.822-13.002-13.002-13.002ZM14.821.863C6.636.863 0 7.5 0 15.684v335.488c0 8.185 6.636 14.82 14.82 14.82h200.081c8.185 0 14.82-6.635 14.82-14.82V15.684c0-8.185-6.635-14.82-14.82-14.82H14.821Z" clip-rule="evenodd"/>
  <path fill="#84AAA3" d="M128.519 19.563c.625 0 1.13.44 1.13.981 0 .51-.448.93-1.02.977l-.11.005H99.312c-.624 0-1.13-.44-1.13-.982 0-.51.448-.929 1.021-.977l.109-.005h29.207Zm0 327.107c.625 0 1.13.439 1.13.981 0 .51-.448.93-1.02.977l-.11.005H99.312c-.624 0-1.13-.44-1.13-.982 0-.51.448-.929 1.021-.977l.109-.004h29.207Z"/>
</svg>
