<svg xmlns="http://www.w3.org/2000/svg" width="33" height="32" fill="none" viewBox="0 0 33 32">
  <path fill="#111928" fill-rule="evenodd" d="M18.884 5.072c-.608-2.496-4.16-2.496-4.768 0a2.45 2.45 0 0 1-3.658 1.517c-2.195-1.338-4.707 1.174-3.37 3.37a2.453 2.453 0 0 1-1.514 3.659c-2.498.606-2.498 4.16 0 4.764a2.452 2.452 0 0 1 1.515 3.66c-1.338 2.195 1.174 4.707 3.37 3.37a2.451 2.451 0 0 1 3.659 1.514c.606 2.498 4.16 2.498 4.764 0a2.454 2.454 0 0 1 3.66-1.515c2.195 1.338 4.707-1.174 3.37-3.37a2.453 2.453 0 0 1 1.514-3.659c2.498-.606 2.498-4.16 0-4.764a2.45 2.45 0 0 1-1.515-3.66c1.338-2.195-1.174-4.707-3.37-3.37a2.451 2.451 0 0 1-3.659-1.514l.002-.002ZM16.5 20.8a4.8 4.8 0 1 0 0-9.6 4.8 4.8 0 0 0 0 9.6Z" clip-rule="evenodd"/>
</svg>
