<svg xmlns="http://www.w3.org/2000/svg" width="372" height="308" fill="none" viewBox="0 0 372 308">
  <path fill="#F7F9F9" fill-rule="evenodd" d="M300.507 100.01c17.055 53.019-5.504 118.259-48.448 147.518-42.876 29.191-106.137 22.47-144.256-7.875-38.187-30.277-51.234-84.044-36.625-133.601C85.72 56.427 127.984 11.078 177.383 8.77c49.467-2.376 106.137 38.288 123.124 91.24Z" clip-rule="evenodd"/>
  <path fill="#84AAA3" fill-rule="evenodd" d="M155.568 81.647s-3.164 4.805-4.458 10.849c-.552 2.58-1.285 5.842.191 9.386.357.855 2.18 5.39 6.504 6.597 5.415 1.512 10.286-3.432 11.304-4.465 3.164-3.211 4.039-6.85 4.858-10.257.415-1.723 2.099-8.724.072-16.549-.432-1.667-1.123-3.722-1.334-6.91-.17-2.58-.293-4.838.849-7.03 1.081-2.076 2.148-1.888 5.159-4.667 1.683-1.552 4.401-4.06 5.924-7.779 1.091-2.664.277-2.795 1.713-7.495 1.059-3.462 1.587-5.194 2.998-6.425 2.217-1.934 4.515-1.377 5.461-3.212.547-1.06-.431-1.548-.295-3.99.069-1.225.142-2.556 1.109-3.637.772-.865 2.173-1.639 3.396-1.291 1.029.291 1.128 1.145 1.971 1.596 1.362.729 3.153-.363 5.706-1.873 2.629-1.556 2.633-1.59 4.634-2.573 2.704-1.326 3.575-1.303 4.332-2.19 1.693-1.983-.437-7.235-3.089-10.62-4.526-5.779-12.523-8.606-19.884-8.06-10.189.758-16.297 7.767-17.615 9.37-4.327 5.26-5.433 11.092-5.996 14.053-1.417 7.465.766 9.058-1.312 15.74-.809 2.606-2.164 6.962-5.809 11.056-2.795 3.14-5.193 4.167-6.745 8.058-.403 1.01-1.235 3.16-1.029 5.896.131 1.752.745 3.42 1.971 6.758 1.147 3.12 1.579 3.706 1.502 5.068-.107 1.908-1.084 3.072-2.088 4.596Z" clip-rule="evenodd"/>
  <path fill="#84AAA3" d="M196.461 47.02a.76.76 0 0 1 1.498.238l-.012.072-1.29 6.165-.532 2.535a.76.76 0 0 1-.454.546c-2.412.992-5.089 1.57-8.13 1.438a19.05 19.05 0 0 1-6.413-1.412.759.759 0 1 1 .575-1.405 17.524 17.524 0 0 0 5.904 1.3 17.332 17.332 0 0 0 6.969-1.121l.147-.057 1.738-8.3Z"/>
  <path fill="#84AAA3" d="M214.511 16.387a.76.76 0 0 1 .841.668c.984 8.628.021 16.147-2.593 22.224-2.161 5.015-5.812 8.443-10.16 9.23a7.288 7.288 0 0 1-1.693.082c-1.048-.052-2.282-.265-3.61-.607l-2.48-.656a89.908 89.908 0 0 1-.472-.13l-.397-.11a54.52 54.52 0 0 1-1.695-.514.76.76 0 0 1 .462-1.446l.575.181c.278.086.542.165.807.242l.457.13.787.216 2.061.544c1.343.361 2.579.584 3.584.634.521.028.973.008 1.342-.06 3.797-.687 7.063-3.754 9.037-8.336 2.506-5.824 3.435-13.077 2.479-21.452a.758.758 0 0 1 .668-.84Zm-45.305 86.636a.76.76 0 0 1 .878.619 316.909 316.909 0 0 1 4.551 61.978l-.017.641.56-.467a86.898 86.898 0 0 1 2.594-2.061l.667-.505a87.74 87.74 0 0 1 3.818-2.704.76.76 0 0 1 .844 1.262 86.169 86.169 0 0 0-8.792 6.739.759.759 0 0 1-1.258-.596 315.435 315.435 0 0 0-4.463-64.028.76.76 0 0 1 .618-.878Zm19.453-4.646a.76.76 0 0 1 .808.707 356.009 356.009 0 0 0 10.919 66.96.76.76 0 0 1-.563.932l-.069.013-12.008 1.628a.759.759 0 0 1-.824-.517 159.355 159.355 0 0 1-7.361-37.356.76.76 0 0 1 1.514-.114 157.372 157.372 0 0 0 2.37 17.862 157.33 157.33 0 0 0 4.639 18.263l.088.272 10.529-1.428-.171-.655a357.93 357.93 0 0 1-4.177-18.098l-.308-1.531a357.356 357.356 0 0 1-6.092-46.13.758.758 0 0 1 .706-.808Zm6.137-43.078a.758.758 0 0 1 1.034.287 75.984 75.984 0 0 0 4.104 6.483 58.405 58.405 0 0 0 2.182 2.895l.218.27c.529.648 4.795 5.61 7.425 8.763l3.501 4.236c3.087 3.757 3.914 4.858 4.374 5.74.429.825.778 1.62 1.057 2.413l.102.298c.92 2.783 1.046 4.234.814 11.194l-.149 4.226c-.025.746-.046 1.451-.065 2.164l-.024 1.198-.006.401c-.104 7.791.098 17.086.853 26.048a160.232 160.232 0 0 0 1.884 14.475.76.76 0 0 1-.598.877 122.845 122.845 0 0 0-9.837 2.403 125.075 125.075 0 0 0-10.951 3.713.759.759 0 1 1-.553-1.414 126.662 126.662 0 0 1 11.084-3.757 124.274 124.274 0 0 1 9.064-2.251l.168-.035-.121-.711a162.143 162.143 0 0 1-1.581-12.353l-.071-.82c-.739-8.753-.951-17.811-.867-25.5l.03-1.954.028-1.075c.024-.836.052-1.683.086-2.621l.108-3.029c.225-6.763.108-8.147-.738-10.702a16.144 16.144 0 0 0-.901-2.167l-.213-.413c-.441-.802-1.42-2.07-4.676-6.024l-3.142-3.797c-2.463-2.947-6.213-7.313-7.117-8.394l-.145-.174a57.965 57.965 0 0 1-2.463-3.246 77.805 77.805 0 0 1-4.185-6.612.759.759 0 0 1 .287-1.035Z"/>
  <path fill="#84AAA3" d="M218.067 146.471a.76.76 0 0 1 .756.685l.003.074v81.597l-.002.062-.008.063-10.859 65.296a.759.759 0 0 1-1.506-.177l.009-.072 10.848-65.233V147.23a.76.76 0 0 1 .686-.756l.073-.003Zm-28.153 36.698a.76.76 0 0 1 .816.613l.011.072 4.353 46.323.003.093-2.176 73.808a.76.76 0 0 1-1.517.028l-.001-.073 2.175-73.763-4.349-46.274a.76.76 0 0 1 .612-.816l.073-.011Z"/>
  <path fill="#84AAA3" fill-rule="evenodd" d="M189.985 294.124h22.004l18.027 4.315a5.664 5.664 0 0 1 4.345 5.508v3.028l-44.376-.534v-12.317Zm-35.172-23.887-10.606 11.578 29.632 25.002h9.003v-2.66l-6.84-4.834-6.429-17.848-14.76-11.238Z" clip-rule="evenodd"/>
  <path fill="#84AAA3" d="M193.323 225.248a.759.759 0 0 1 1.226.891l-.046.063-37.691 46.603a.758.758 0 0 1-1.226-.891l.046-.063 37.691-46.603Zm-.299 31.986a.758.758 0 0 1 1.058 1.086l-.056.054-26.017 22.866a.76.76 0 0 1-1.059-1.086l.056-.054 26.018-22.866Zm4.73-91.445a.759.759 0 0 1 1.038.276l.516.895c.357.625.743 1.309 1.176 2.082l.524.947c3.789 6.898 4.544 9.22 3.955 10.866-1.229 3.442-6.307 5.45-10.826 4.927-1.066-.123-1.938-.293-2.962-.677-1.582-.593-2.857-1.521-3.661-2.872-.889-1.492-.94-3.107-.254-7.198a76.607 76.607 0 0 1 1.677-7.64.758.758 0 1 1 1.464.399 75.08 75.08 0 0 0-1.549 6.937l-.094.554c-.631 3.76-.589 5.081.06 6.171.607 1.019 1.605 1.746 2.89 2.227.882.331 1.649.481 2.603.59 3.896.452 8.277-1.28 9.223-3.929l.024-.075c.344-1.15-.477-3.427-4.4-10.488l-.756-1.342a208.36 208.36 0 0 0-.923-1.613.758.758 0 0 1 .275-1.037Z"/>
  <path fill="#84AAA3" d="M178.32 163.378a.76.76 0 0 1 .951.498 78.06 78.06 0 0 0 4.18 10.621 77.855 77.855 0 0 0 7.473 12.449.759.759 0 0 1-1.224.899 79.492 79.492 0 0 1-7.618-12.691 79.532 79.532 0 0 1-4.26-10.826.758.758 0 0 1 .498-.95Z"/>
  <path fill="#84AAA3" d="M187.186 177.704a.76.76 0 0 1 .806 1.287c-.568.356-1.125.71-1.671 1.065l-.544.355c-11.453 7.468-21.971 16.554-30.895 26.704l-.781.897a299.568 299.568 0 0 0-3.407 4.009l-4.312 5.17c-4.531 5.417-7.224 8.474-10.417 11.725-4.393 4.472-8.667 8.074-13.207 10.993l-.849.539c-9.256 5.73-21.818 7.904-31.66 5.183a.759.759 0 1 1 .405-1.463c9.417 2.604 21.548.504 30.446-5.005l.389-.246c8.23-5.188 13.995-11.026 24.684-23.844l3.175-3.81a308.586 308.586 0 0 1 3.895-4.579c8.958-10.297 19.538-19.527 31.073-27.13l.63-.413a115.41 115.41 0 0 1 2.24-1.437Z"/>
  <path fill="#84AAA3" d="M92.72 223.768a.759.759 0 0 1 .817.695c1.025 12.576-1.758 23.549-8.856 32.079l-.467.555c-1.626 1.914-3.221 3.574-6.02 6.314l-2.64 2.568c-7.328 7.146-10.364 10.801-12.818 16.263-3.386 7.549-3.307 16.309-.014 24.443a.76.76 0 0 1-1.407.57c-3.443-8.505-3.526-17.693.036-25.635l.188-.413c2.585-5.597 5.827-9.397 13.497-16.844l1.258-1.22c3.586-3.489 5.307-5.273 7.22-7.572 6.821-8.197 9.505-18.779 8.51-30.985a.759.759 0 0 1 .695-.818Z"/>
  <path fill="#84AAA3" d="M116.35 195.508c3.056-1.541 4.775-1.73 5.929-1.177 1.922.907 2.924 3.587 2.869 6.256a5.998 5.998 0 0 1-.076.91 7.182 7.182 0 0 1-.305 1.37c-.658 2.026-1.968 3.566-4.488 5.691l-2.038 1.691-.444.377c-2.971 2.55-4.553 4.572-5.38 7.381l-.059.207c-.412 1.488-.26 3.186.771 9.454l3.92 23.523.208 1.169c1.901 10.797 2.689 18.441 2.187 27.573-.476 8.591-2.306 17.567-6.228 27.32a.76.76 0 0 1-1.409-.566c3.857-9.59 5.653-18.405 6.121-26.838.485-8.827-.257-16.269-2.068-26.663l-.544-3.12-3.807-22.9c-.958-5.881-1.09-7.581-.633-9.287l.019-.07c.928-3.347 2.74-5.647 6.141-8.531l.883-.734c.512-.424 1.152-.953 1.381-1.147l.398-.339c2.056-1.777 3.11-3.075 3.625-4.659.118-.367.199-.721.247-1.118a4.87 4.87 0 0 0 .06-.723c.044-2.138-.751-4.265-2.003-4.856-.231-.111-.504-.16-1.021-.104-.853.094-2.026.486-3.572 1.265a20.355 20.355 0 0 0-2.799 1.691l-.611.457c-.296.227-.55.436-.958.791l-1.082.954c-1.366 1.214-2.286 1.91-3.591 2.624-1.183.647-2.139.992-3.249 1.214l-.224.042c-.221.04-.434.075-.735.119l-.534.08c-1.326.199-1.933.327-3.001.654-3.854 1.18-7.227 3.464-10.11 6.48a30.255 30.255 0 0 0-2.806 3.398 24.121 24.121 0 0 0-1.264 1.957c-1.806 3.125-3.06 6.932-3.517 10.343-.397 2.977-.07 5.153.552 5.447.388.183 1.434-.361 2.806-1.599.478-.43.982-.93 1.514-1.493l.358-.383c.545-.59 1.05-1.17 1.824-2.08a30.129 30.129 0 0 0 2.533-3.441 31.037 31.037 0 0 0 2.416-4.645.76.76 0 0 1 1.4.589 32.517 32.517 0 0 1-2.533 4.868 31.606 31.606 0 0 1-2.66 3.614l-.617.72a49.394 49.394 0 0 1-1.617 1.801c-.558.59-1.09 1.117-1.6 1.577l-.28.248c-1.703 1.481-3.062 2.13-4.191 1.597-2.9-1.368-1.652-10.936 2.18-17.716l.117-.205c.337-.587.766-1.267 1.341-2.078a31.91 31.91 0 0 1 2.946-3.569c3.051-3.19 6.637-5.618 10.763-6.881l.317-.096c.918-.27 1.563-.403 2.696-.577l1.069-.161c.131-.021.246-.04.362-.061 1.05-.191 1.9-.485 3.015-1.095 1.12-.613 1.93-1.212 3.101-2.241l1.325-1.168c.534-.465.819-.693 1.267-1.028l.147-.11c.956-.715 2-1.363 3.246-1.993Z"/>
  <path fill="#84AAA3" d="M108.188 269.479a.759.759 0 0 1 .806.71 55.863 55.863 0 0 1-1.206 15.687c-1.841 8.298-5.347 15.413-9.888 21.546a.758.758 0 1 1-1.22-.903c4.422-5.973 7.835-12.898 9.626-20.972a54.34 54.34 0 0 0 1.172-15.263.759.759 0 0 1 .71-.805Zm-13.201 7.143a.76.76 0 0 1 .78.738c.135 4.791-.529 9.73-2.426 14.835-1.565 4.207-3.775 7.927-6.467 11.204a41.926 41.926 0 0 1-2.622 2.897c-.429.423-.858.832-1.289 1.231a.759.759 0 1 1-1.031-1.114 51.55 51.55 0 0 0 1.247-1.193 40.495 40.495 0 0 0 2.523-2.785 37.474 37.474 0 0 0 6.216-10.769c1.823-4.905 2.461-9.655 2.331-14.263a.76.76 0 0 1 .738-.781Z"/>
  <path fill="#84AAA3" d="M370.779 306.211a.759.759 0 0 1 .073 1.515l-.073.003H1.328a.76.76 0 0 1-.073-1.515l.073-.003h369.451Z"/>
  <path fill="#84AAA3" fill-rule="evenodd" d="m37.628 138.916 26.947-20.524a.758.758 0 0 1 .92 0l26.946 20.524a.76.76 0 0 1 0 1.208l-26.947 20.523a.758.758 0 0 1-.92 0l-26.946-20.523a.759.759 0 0 1 0-1.208Zm53.1.603L65.034 119.95 39.34 139.519l25.694 19.57 25.694-19.57Z" clip-rule="evenodd"/>
  <path fill="#84AAA3" d="M91.98 138.76a.76.76 0 0 1 .757.686l.003.074v29.855a.76.76 0 0 1-.239.553l-.06.051-26.947 20.523a.76.76 0 0 1-.855.044l-.064-.044-26.947-20.523a.763.763 0 0 1-.295-.526l-.004-.078V139.52a.76.76 0 0 1 1.515-.074l.003.074v29.478l26.187 19.946 26.188-19.946V139.52c0-.395.3-.72.686-.756l.073-.004Z"/>
  <path fill="#84AAA3" d="M65.035 159.283a.76.76 0 0 1 .755.687l.004.073v29.855a.76.76 0 0 1-1.515.073l-.003-.073v-29.855c0-.419.34-.76.759-.76Z"/>
  <path fill="#84AAA3" fill-rule="evenodd" d="m65.035 160.042 26.946-20.523v29.855l-26.946 20.524v-29.856ZM75.598 20.905 102.545.382a.76.76 0 0 1 .92 0l26.947 20.523a.76.76 0 0 1 0 1.208l-26.947 20.523a.76.76 0 0 1-.92 0L75.598 22.113a.76.76 0 0 1 0-1.208Zm53.101.604-25.694-19.57-25.694 19.57 25.694 19.568 25.694-19.568Z" clip-rule="evenodd"/>
  <path fill="#84AAA3" d="M129.952 20.75a.76.76 0 0 1 .755.686l.004.073v29.855a.76.76 0 0 1-.24.554l-.059.05-26.947 20.523a.76.76 0 0 1-.855.044l-.065-.043-26.947-20.523a.761.761 0 0 1-.295-.526l-.004-.079V21.51a.76.76 0 0 1 1.515-.073l.004.073v29.48l26.187 19.944 26.187-19.945v-29.48a.76.76 0 0 1 .687-.755l.073-.003Z"/>
  <path fill="#84AAA3" d="M103.005 41.273a.76.76 0 0 1 .756.686l.003.072v29.856a.758.758 0 0 1-1.514.074l-.004-.074V42.032a.76.76 0 0 1 .759-.76Z"/>
  <path fill="#84AAA3" fill-rule="evenodd" d="M103.005 42.032 76.059 21.51v29.856l26.946 20.523V42.032Zm176.179 19.919 26.947-20.523a.76.76 0 0 1 .92 0l26.947 20.523a.76.76 0 0 1 0 1.208l-26.947 20.523a.76.76 0 0 1-.92 0L279.184 63.16a.76.76 0 0 1 0-1.208Zm53.101.604-25.694-19.57-25.694 19.57 25.694 19.57 25.694-19.57Z" clip-rule="evenodd"/>
  <path fill="#84AAA3" fill-rule="evenodd" d="m279.645 62.555 26.946 20.524 26.947-20.524-26.947-20.523-26.946 20.523Z" clip-rule="evenodd"/>
  <path fill="#84AAA3" d="M333.538 61.796c.394 0 .719.3.755.686l.004.073v29.856a.76.76 0 0 1-.24.553l-.059.05-26.947 20.524a.762.762 0 0 1-.855.044l-.065-.044-26.947-20.524a.763.763 0 0 1-.295-.525l-.004-.078V62.555a.759.759 0 0 1 1.515-.073l.003.073v29.48l26.188 19.944 26.187-19.945V62.555a.76.76 0 0 1 .687-.756l.073-.003Z"/>
  <path fill="#84AAA3" d="M306.591 82.319a.76.76 0 0 1 .756.686l.003.073v29.855a.758.758 0 0 1-1.514.074l-.004-.074V83.078c0-.42.34-.76.759-.76Zm-61.445 18.178a.76.76 0 0 1 1.02 1.122l-.057.052-7.543 6.187a6.349 6.349 0 0 1-6.29 1.023l-.162-.064-6.079-2.511-7.408.213a.758.758 0 0 1-.775-.664l-.006-.073a.76.76 0 0 1 .664-.775l.073-.005 7.571-.218a.754.754 0 0 1 .236.03l.075.027 6.228 2.573a4.836 4.836 0 0 0 4.784-.63l.126-.1 7.543-6.187Zm-13.744-8.067a4.266 4.266 0 0 1 3.584-.064l.142.066 5.862 2.849a.76.76 0 0 1-.596 1.394l-.067-.03-5.862-2.848a2.748 2.748 0 0 0-2.273-.058l-.127.057-7.446 3.614a.756.756 0 0 1-.246.071l-.085.005h-5.395a.76.76 0 0 1-.073-1.514l.073-.004h5.22l7.289-3.538Z"/>
  <path fill="#84AAA3" d="M259.321 85.837a.758.758 0 0 1 .937 1.191l-.058.046-25.316 18.005a.758.758 0 0 1-.937-1.192l.058-.045 25.316-18.005Zm-7.108-43.827c10.132-5.587 19.842-5.933 29.102-.069a.76.76 0 0 1-.813 1.283c-8.755-5.545-17.879-5.22-27.557.116-7.879 4.344-15.72 11.693-24.472 22.163a.758.758 0 1 1-1.164-.974l.757-.9c8.56-10.126 16.297-17.29 24.147-21.619Z"/>
  <path fill="#8AF5D1" d="M161.966 132.713a.76.76 0 0 1 .833 1.269c-16.686 10.953-35.036 17.478-52.337 17.791a.76.76 0 0 1-.027-1.518c16.989-.307 35.069-6.736 51.531-17.542ZM61.892 35.331a.76.76 0 0 1 .707 1.344c-23.184 12.2-31.747 42.693-20.767 68.484a.76.76 0 0 1-1.396.595c-11.274-26.48-2.47-57.831 21.456-70.423Z"/>
  <path fill="#84AAA3" d="M252.419 167.042c.394 0 .719.302.756.687l.003.073v59.906a.76.76 0 0 1-1.515.073l-.003-.073v-59.906a.76.76 0 0 1 .759-.76Zm21.138 0c.395 0 .719.302.755.687l.004.073v59.906a.76.76 0 0 1-1.515.073l-.003-.073v-59.906c0-.419.34-.76.759-.76Zm21.137 0a.76.76 0 0 1 .756.687l.003.073v59.906a.76.76 0 0 1-1.515.073l-.003-.073v-59.906c0-.419.34-.76.759-.76Zm21.142 0a.76.76 0 0 1 .756.687l.003.073v59.906a.76.76 0 0 1-1.515.073l-.003-.073v-59.906c0-.419.34-.76.759-.76Zm21.137 0a.76.76 0 0 1 .756.687l.003.073v59.906a.759.759 0 0 1-1.514.073l-.004-.073v-59.906c0-.419.34-.76.759-.76Zm21.138 0a.76.76 0 0 1 .755.687l.004.073v59.906a.76.76 0 0 1-1.515.073l-.003-.073v-59.906a.76.76 0 0 1 .759-.76Z"/>
  <path fill="#84AAA3" d="M358.111 167.042a.76.76 0 0 1 .073 1.515l-.073.004H252.419a.76.76 0 0 1-.073-1.515l.073-.004h105.692Zm0 11.984a.759.759 0 0 1 .073 1.514l-.073.004H252.419a.76.76 0 0 1-.073-1.515l.073-.003h105.692Zm0 11.978a.759.759 0 0 1 .073 1.514l-.073.004H252.419a.76.76 0 0 1-.073-1.515l.073-.003h105.692Zm0 11.983a.76.76 0 0 1 .073 1.515l-.073.003H252.419a.759.759 0 0 1-.073-1.514l.073-.004h105.692Zm0 11.978a.76.76 0 0 1 .073 1.515l-.073.003H252.419a.759.759 0 0 1-.073-1.514l.073-.004h105.692Zm0 11.984a.76.76 0 0 1 .073 1.514l-.073.004H252.419a.76.76 0 0 1-.073-1.515l.073-.003h105.692Z"/>
  <path fill="#84AAA3" fill-rule="evenodd" d="M273.557 191.763h21.137v-11.978h-21.137v11.978Zm42.279 11.981h21.137v-11.978h-21.137v11.978Zm-63.417 23.959h21.138v-11.978h-21.138v11.978Zm-.82 35.697h107.402v-23.241H251.599V263.4Z" clip-rule="evenodd"/>
  <path fill="#fff" fill-rule="evenodd" d="M266.739 249.715v-1.39c.643-.029 1.093-.073 1.351-.13.41-.091.744-.272 1.001-.544.176-.187.31-.435.4-.746.053-.187.079-.325.079-.416h1.706v10.394h-2.093v-7.168h-2.444Zm11.894 4.813c.196.634.597.95 1.204.95s1.004-.316 1.193-.95c.189-.633.283-1.547.283-2.742 0-1.252-.094-2.179-.283-2.781-.189-.602-.586-.903-1.193-.903-.607 0-1.008.301-1.204.903-.196.602-.294 1.529-.294 2.781 0 1.195.098 2.109.294 2.742Zm3.989-6.713c.533.932.799 2.256.799 3.971 0 1.716-.266 3.038-.799 3.965s-1.461 1.39-2.785 1.39-2.252-.463-2.785-1.39c-.533-.927-.799-2.249-.799-3.965 0-1.715.266-3.039.799-3.971.533-.931 1.461-1.397 2.785-1.397s2.252.466 2.785 1.397Zm4.263 1.9v-1.39c.643-.029 1.094-.073 1.352-.13a1.907 1.907 0 0 0 1-.544c.176-.187.31-.435.401-.746.052-.187.078-.325.078-.416h1.706v10.394h-2.093v-7.168h-2.444Zm11.894 4.813c.197.634.598.95 1.205.95.606 0 1.004-.316 1.193-.95.189-.633.283-1.547.283-2.742 0-1.252-.094-2.179-.283-2.781-.189-.602-.587-.903-1.193-.903-.607 0-1.008.301-1.205.903-.196.602-.294 1.529-.294 2.781 0 1.195.098 2.109.294 2.742Zm3.99-6.713c.532.932.799 2.256.799 3.971 0 1.716-.267 3.038-.799 3.965-.533.927-1.462 1.39-2.785 1.39-1.324 0-2.252-.463-2.786-1.39-.532-.927-.798-2.249-.798-3.965 0-1.715.266-3.039.798-3.971.534-.931 1.462-1.397 2.786-1.397 1.323 0 2.252.466 2.785 1.397Zm4.262 1.9v-1.39c.643-.029 1.093-.073 1.351-.13.41-.091.744-.272 1.001-.544.176-.187.31-.435.401-.746.052-.187.078-.325.078-.416h1.706v10.394h-2.093v-7.168h-2.444Zm11.895 4.813c.195.634.597.95 1.203.95.607 0 1.005-.316 1.194-.95.189-.633.283-1.547.283-2.742 0-1.252-.094-2.179-.283-2.781-.189-.602-.587-.903-1.194-.903-.606 0-1.008.301-1.203.903-.197.602-.295 1.529-.295 2.781 0 1.195.098 2.109.295 2.742Zm3.988-6.713c.533.932.8 2.256.8 3.971 0 1.716-.267 3.038-.8 3.965s-1.461 1.39-2.785 1.39c-1.323 0-2.251-.463-2.784-1.39-.534-.927-.799-2.249-.799-3.965 0-1.715.265-3.039.799-3.971.533-.931 1.461-1.397 2.784-1.397 1.324 0 2.252.466 2.785 1.397Zm4.263 1.9v-1.39c.643-.029 1.094-.073 1.352-.13.409-.091.744-.272 1-.544.177-.187.311-.435.401-.746.053-.187.079-.325.079-.416h1.706v10.394h-2.094v-7.168h-2.444Zm11.895 4.813c.196.634.597.95 1.204.95.606 0 1.004-.316 1.193-.95.189-.633.283-1.547.283-2.742 0-1.252-.094-2.179-.283-2.781-.189-.602-.587-.903-1.193-.903-.607 0-1.008.301-1.204.903-.197.602-.295 1.529-.295 2.781 0 1.195.098 2.109.295 2.742Zm3.989-6.713c.532.932.799 2.256.799 3.971 0 1.716-.267 3.038-.799 3.965-.533.927-1.462 1.39-2.785 1.39-1.324 0-2.252-.463-2.785-1.39-.533-.927-.799-2.249-.799-3.965 0-1.715.266-3.039.799-3.971.533-.931 1.461-1.397 2.785-1.397 1.323 0 2.252.466 2.785 1.397Z" clip-rule="evenodd"/>
  <path fill="#84AAA3" d="M49.913 240.69a.76.76 0 0 1 1.12-.058l.053.058 4.99 6.073a.759.759 0 0 1-1.12 1.021l-.053-.057-4.404-5.36-4.404 5.36a.76.76 0 0 1-1.12.058l-.053-.058-4.403-5.359-4.403 5.359a.76.76 0 0 1-1.12.058l-.053-.058-4.405-5.36-4.406 5.36a.76.76 0 0 1-1.12.058l-.053-.058-4.405-5.36-4.407 5.36a.759.759 0 0 1-1.12.058l-.053-.058-4.995-6.073a.759.759 0 0 1 1.12-1.021l.053.057 4.408 5.359 4.408-5.359a.76.76 0 0 1 1.12-.058l.053.058 4.404 5.359 4.407-5.359a.76.76 0 0 1 1.12-.058l.053.058 4.404 5.359 4.404-5.359a.76.76 0 0 1 1.12-.058l.053.058 4.402 5.359 4.405-5.359Z"/>
  <path fill="#8AF5D1" d="M10.084 253.015a.759.759 0 0 1 1.016.046l.052.057 4.408 5.36 4.408-5.36a.76.76 0 0 1 1.12-.057l.053.058 4.405 5.359 4.406-5.36a.76.76 0 0 1 1.12-.057l.053.058 4.404 5.358 4.404-5.358a.76.76 0 0 1 1.12-.058l.053.058 4.402 5.358 4.405-5.358a.76.76 0 0 1 1.12-.058l.053.058 4.99 6.072a.76.76 0 0 1-1.12 1.022l-.053-.058-4.404-5.359-4.404 5.359a.76.76 0 0 1-1.12.058l-.053-.058-4.403-5.359-4.403 5.359a.76.76 0 0 1-1.12.058l-.053-.058-4.405-5.359-4.406 5.359a.76.76 0 0 1-1.12.058l-.053-.058-4.405-5.359-4.407 5.359a.76.76 0 0 1-1.12.059l-.053-.059-4.995-6.072a.759.759 0 0 1 .105-1.068Z"/>
  <path fill="#84AAA3" d="M275.46 290.659a.76.76 0 0 1 .755.686l.004.073v15.045a.76.76 0 0 1-1.515.072l-.004-.072v-15.045a.76.76 0 0 1 .76-.759Z"/>
  <path fill="#84AAA3" d="M279.84 297.206a.76.76 0 0 1 1.362.668l-.033.066-4.895 8.866-.068.133-.086.152a.759.759 0 0 1-1.354-.683l.033-.065.069-.12.064-.126 4.908-8.891Z"/>
  <path fill="#84AAA3" d="M267.889 297.38a.76.76 0 0 1 1.015.067l.051.059 7.015 8.886.081.101a.758.758 0 0 1-1.131 1.009l-.052-.058-.056-.071-.035-.041-7.013-8.886a.759.759 0 0 1 .125-1.066Zm-240.431-6.996a.758.758 0 0 1 1.499.229l-.011.072-3.166 15.595v.183a.76.76 0 0 1-.685.755l-.073.004a.76.76 0 0 1-.756-.687l-.003-.072v-.259l.003-.075.012-.075 3.18-15.67Z"/>
  <path fill="#84AAA3" d="M30.89 300.624a.76.76 0 0 1 1.038 1.107l-.057.053-6.107 5.161-.082.146a.76.76 0 0 1-.97.32l-.065-.033a.76.76 0 0 1-.32-.97l.034-.065.067-.117.051-.101a.776.776 0 0 1 .133-.188l.056-.053 6.223-5.26Z"/>
  <path fill="#84AAA3" d="M17.451 297.38a.76.76 0 0 1 1.015.067l.051.059 7.015 8.886.081.101a.759.759 0 0 1-1.131 1.009l-.052-.058-.056-.071-.034-.041-7.014-8.886a.76.76 0 0 1 .125-1.066Z"/>
  <path fill="#8AF5D1" d="M350.952 37.4a.758.758 0 0 1 1.261.843l-.041.06-10.982 14.85a.76.76 0 0 1-1.262-.842l.041-.06 10.983-14.85Zm-6.717 29.825a.759.759 0 0 1 .908-.465l.07.022 17.286 6.506a.759.759 0 0 1-.465 1.443l-.07-.023-17.286-6.505a.759.759 0 0 1-.443-.978Zm20.65-14.45a.76.76 0 0 1 .499 1.432l-.068.024-19.391 5.724a.758.758 0 0 1-.499-1.432l.069-.024 19.39-5.724Z"/>
  <path fill="#84AAA3" d="M26.807 142.552a.76.76 0 0 1 .296 1.487l-.072.014-18.266 2.735a.759.759 0 0 1-.297-1.488l.072-.014 18.267-2.734Zm-.453-30.31a.76.76 0 0 1 .971.313l.034.065 7.623 16.824a.76.76 0 0 1-1.35.692l-.033-.065-7.623-16.824a.76.76 0 0 1 .378-1.005ZM9.48 125.034a.76.76 0 0 1 .964-.336l.065.032 17.759 9.664a.76.76 0 0 1-.66 1.366l-.066-.032-17.758-9.664a.76.76 0 0 1-.304-1.03Z"/>
  <path fill="#84AAA3" fill-rule="evenodd" d="M102.074 209.827a1.471 1.471 0 1 1-2.942 0 1.471 1.471 0 0 1 2.942 0Zm22.315-9.254a5.498 5.498 0 0 1-.071.835c-.835.157-1.731.238-2.667.238-4.003 0-7.337-1.518-8.091-3.537a20.774 20.774 0 0 1 3.132-1.923c3.613-1.822 4.848-1.366 5.263-1.169 1.801.85 2.474 3.603 2.434 5.556ZM88.744 306.97h-5.158c.044-.443.094-.885.144-1.328a45.102 45.102 0 0 0 2.811-3.105 5.74 5.74 0 0 1 1.722 2.209 5.8 5.8 0 0 1 .481 2.224Zm14.074 0H97.66c.045-.443.094-.885.144-1.328a44.973 44.973 0 0 0 2.811-3.105 5.748 5.748 0 0 1 1.722 2.209c.349.802.47 1.571.481 2.224Zm14.348 0h-5.158c1.032-1.969 1.642-3.254 2.445-4.859.653.515 1.8 1.655 2.231 2.635.349.802.471 1.571.482 2.224Zm79.869-259.84a43.804 43.804 0 0 1-4.934-1.456c.074.84.382 2.23.983 3.341.999 1.841 2.306 2.666 3.012 3.34.469-2.438.471-3.068.939-5.224Z" clip-rule="evenodd"/>
  <path fill="#84AAA3" fill-rule="evenodd" d="M192.417 49.376c-.582-1.074-.972-2.504-1.072-3.636a.76.76 0 0 1 1.014-.78 42.933 42.933 0 0 0 4.848 1.43.76.76 0 0 1 .57.901 40.835 40.835 0 0 0-.432 2.282l-.21 1.299c-.048.29-.087.519-.129.75l-.164.877a.76.76 0 0 1-1.27.405 6.093 6.093 0 0 0-.216-.195l-.62-.53a11.272 11.272 0 0 1-1.134-1.107 9.05 9.05 0 0 1-1.185-1.696Zm.997-2.455-.349-.114.062.237c.157.571.371 1.14.625 1.609.286.527.614.99.988 1.415.122.138.318.332.539.54l.312.291.301-1.842c.074-.445.146-.844.231-1.27l.018-.092-.44-.112a42.92 42.92 0 0 1-1.168-.322l-.587-.174c-.178-.054-.355-.11-.532-.166Z" clip-rule="evenodd"/>
</svg>
