<svg xmlns="http://www.w3.org/2000/svg" width="428" height="400" fill="none" viewBox="0 0 428 400">
  <path fill="#F7F9F9" fill-rule="evenodd" d="M308.376 47.709c-45.068-31.068-104.46-2.742-132.655 63.267l-.021.049c-1.326 3.108-3.581 5.503-6.554 6.926-14.372 6.881-28.265 16.083-41.034 27.581-59.25 53.35-71.922 135.869-28.303 184.312 43.618 48.443 127.009 44.466 186.26-8.883 30.398-27.371 48.537-62.42 53.102-96.607a15.913 15.913 0 0 1 1.007-3.882c26.522-65.374 12.583-142.167-31.802-172.763Z" clip-rule="evenodd"/>
  <path fill="#84AAA3" fill-rule="evenodd" d="m220.934 387.788 14.132 4.53a6.395 6.395 0 0 1 5.411 6.319h-31.661l.106-10.841 12.012-.008Zm-57.273-.621 12.963 4.53a6.395 6.395 0 0 1 5.41 6.319h-31.661l.107-10.841 13.181-.008Z" clip-rule="evenodd"/>
  <path fill="#84AAA3" d="M187.283 120.437a.876.876 0 0 1 1.157-.224l.07.047 32.315 24.158 38.101 4.887c.41.052.724.383.761.788l.004.081v8.794c0 .47-.368.851-.828.876l-.082.001-43.953-1.704a.87.87 0 0 1-.31-.07l-.073-.035-34.386-18.559a.877.877 0 0 1 .757-1.579l.076.036 34.207 18.462 42.838 1.661v-7.112l-37.564-4.816a.907.907 0 0 1-.339-.117l-.074-.051-32.499-24.297a.876.876 0 0 1-.178-1.227Z"/>
  <path fill="#84AAA3" d="m169.551 177.24-.861 10.592c-.347 4.3-.604 7.799-.819 11.256l-.053.873 56.715-.249-.058-.254c-1.783-7.888-3.203-15.018-3.978-20.894l-.063-.487c-.75-5.858-1.296-12.439-1.463-20.601a.877.877 0 0 1 1.753-.036l.03 1.299c.19 7.283.687 13.277 1.36 18.644l.06.472c.791 6.216 2.349 13.954 4.312 22.534a.878.878 0 0 1-.776 1.069l-.075.003-58.743.257a.876.876 0 0 1-.879-.927l.08-1.358c.193-3.166.421-6.337.718-10.094l.992-12.234.137-1.808c.194-2.619.335-4.841.436-6.914l.016-.344c.285-6.092.202-10.923-.326-15.211l-.177-1.36c-.184-1.301-.447-2.433-2.383-10.869l-.502-2.225c-1.209-5.416-1.954-9.249-2.494-13.127l-.101-.742c-1.273-9.691-.579-16.335 2.853-19.696 3.024-2.976 9.746-5.34 15.139-5.8a.878.878 0 0 1 .949.801c.378 4.522 4.159 8.115 8.641 8.188 4.667.08 8.669-3.68 8.95-8.399a.877.877 0 0 1 .781-.82l.08-.005 62.767-.957 31.31-16.876a.877.877 0 0 1 1.146.285l.043.073 3.414 6.381a.877.877 0 0 1-.191 1.07l-.068.054-31.816 23.036a.878.878 0 0 1-.307.142l-.084.016-42.537 6.006-.095.59a214.728 214.728 0 0 0-2.054 17.439l-.093 1.268a214.38 214.38 0 0 0-.407 7.605.876.876 0 0 1-1.752-.063c.091-2.556.227-5.116.409-7.666a217.118 217.118 0 0 1 2.365-20.093.874.874 0 0 1 .662-.71l.081-.016 42.961-6.066 31.018-22.46-2.638-4.93-30.723 16.56a.87.87 0 0 1-.318.1l-.084.005-62.2.949-.021.149c-.778 5.127-5.23 9.08-10.435 9.089l-.193-.002c-5.064-.084-9.359-3.88-10.234-8.83l-.014-.079-.259.033c-4.724.617-10.254 2.651-12.817 5.043l-.148.142c-2.937 2.875-3.56 9.217-2.295 18.573l.051.371c.575 4.124 1.388 8.217 2.764 14.298l1.97 8.636c.582 2.611.594 2.874.774 4.262.589 4.505.688 9.543.39 15.92l-.071 1.405a322.206 322.206 0 0 1-.522 7.714Z"/>
  <path fill="#84AAA3" d="M267.314 138.193c2.422 0 4.156 2.319 3.5 4.627l-.039.125-.072.225 6.25-3.276c2.119-1.11 4.571.689 4.188 3.017l-.022.117-1.079 5.284a.878.878 0 0 1-.205.408l-.066.066-8.802 7.975a.887.887 0 0 1-.295.176l-.084.025-11.564 2.858a.877.877 0 0 1-.501-1.678l.081-.025 11.348-2.804 8.426-7.634 1.023-5.003c.186-.906-.73-1.627-1.557-1.266l-.077.037-8.148 4.271c-.672.353-1.43-.255-1.263-.971l.021-.074.729-2.266a1.883 1.883 0 0 0-1.687-2.458l-.06-.002-7.837 10.744a.877.877 0 0 1-1.154.238l-.07-.047a.876.876 0 0 1-.239-1.154l.047-.071 8.101-11.104a.874.874 0 0 1 .615-.355l.093-.005h.399Zm39.702-73.597a2.91 2.91 0 0 1 4.515 1.174l.044.116 1.947 5.436a.87.87 0 0 1-.003.6l-.034.08-4.324 8.857a.864.864 0 0 1-.208.273l-.069.054-10.741 7.707a.876.876 0 0 1-1.088-1.372l.066-.053 10.561-7.577 4.065-8.326-1.822-5.088a1.158 1.158 0 0 0-1.743-.565l-.07.052-9.362 7.506a.877.877 0 0 1-1.195-.09l-.055-.067-2.634-3.512a1.767 1.767 0 0 0-2.299-.469l-.107.067 2.615 12.217a.876.876 0 0 1-.592 1.02l-.082.021a.877.877 0 0 1-1.019-.592l-.022-.082-2.738-12.8a.875.875 0 0 1 .304-.864l.067-.049.506-.338a3.52 3.52 0 0 1 4.679.701l.09.116 2.091 2.787 8.657-6.94Zm-81.502 135.119a.878.878 0 0 1 .968.673l.015.083 12.428 95.078a.943.943 0 0 1 .004.184l-.013.091-17.33 92.126a.878.878 0 0 1-.778.711l-.084.004h-10.853a.878.878 0 0 1-.877-.876l.004-.081 8.447-92.845-18.883-58.638-10.44 58.992-.014.065-23.605 92.121a.875.875 0 0 1-.77.656l-.079.004h-12.23a.877.877 0 0 1-.875-.938l.01-.08 15.76-96.833-.308-89.367a.876.876 0 0 1 .789-.875l.084-.004a.876.876 0 0 1 .876.789l.004.084.309 89.441-.003.072-.008.072-15.608 95.885h10.519l23.429-91.43 11.049-62.437c.154-.872 1.338-.98 1.668-.198l.03.081 20.02 62.171a.884.884 0 0 1 .042.26l-.004.089-8.376 92.066h9.166l17.17-91.273-12.409-94.94a.877.877 0 0 1 .672-.968l.084-.015ZM198.544 92.42a.876.876 0 0 1 .996.63l.019.083 1.118 6.367a.876.876 0 0 1-1.709.385l-.019-.083-1.117-6.367a.876.876 0 0 1 .712-1.014Zm-16.873-6.53a.877.877 0 0 1 .802.865l-.003.084-1.121 13.12a.877.877 0 0 1-1.75-.065l.003-.085 1.121-13.12a.877.877 0 0 1 .863-.802l.085.004Z"/>
  <path fill="#84AAA3" d="M211.983 60.473a.876.876 0 0 1 1.091.589c3.461 11.588 1.199 24.459-5.628 29.471a18.663 18.663 0 0 1-2.494 1.541c-2.085 1.076-4.31 1.768-6.534 2.154-.778.136-1.502.223-2.154.273l-.248.017a9.917 9.917 0 0 1-.602.024c-3.053.008-5.741-.654-8.168-1.72a.877.877 0 0 1 .704-1.605c2.123.931 4.462 1.526 7.099 1.569l.361.002c.122 0 .369-.009.721-.036a20.885 20.885 0 0 0 1.987-.251c2.059-.359 4.117-.998 6.03-1.985.796-.41 1.551-.875 2.26-1.396 6.129-4.5 8.257-16.605 4.986-27.556a.877.877 0 0 1 .589-1.091Z"/>
  <path fill="#84AAA3" fill-rule="evenodd" d="M181.155 68.441c1.899.477 5.727 1.398 8.522-1.397 1.847-1.848 3.006-4.709 5.078-5.249 2.79-.728 4.239 1.428 7.859 2.317 3.521.863 8.839.464 11.99-2.82 2.799-2.92 3.13-7.577 2.162-11.337-.795-3.085-3.189-7.15-5.538-9.301-1.939-1.775-4.57-3.22-7.277-2.635-2.029.438-3.589 1.895-5.316 2.942-2.019 1.226-4.375 1.584-6.709 1.706-2.529.131-5.062-.078-7.593-.026-2.636.054-5.302.403-7.726 1.438-2.223.95-5.235 3.926-6.246 6.205-1.206 2.716-1.044 5.865-1.444 8.707-.395 2.807-2.028 5.38-3.246 7.94-3.848 8.085 1.365 18.94 9.336 22.225 1.625.67 3.49 1.083 5.233.665 1.813-.435 2.346-2.056 2.387-3.775.052-2.251-.641-4.47-1.662-6.477-.779-1.533-1.748-2.958-2.753-4.35-.966-1.34-1.917-2.888-1.17-4.584.682-1.547 2.376-2.464 4.113-2.194Z" clip-rule="evenodd"/>
  <path fill="#84AAA3" d="M174.806 199.928a.877.877 0 0 1 .832.835v.085l-.603 12.077a.877.877 0 0 1-.151.45l-.059.077-7.208 8.412a.877.877 0 0 1-1.387-1.07l.055-.071 7.014-8.185.588-11.778a.876.876 0 0 1 .834-.832h.085Z"/>
  <path fill="#84AAA3" fill-rule="evenodd" d="M274.219 306.753c2.903-3.963 6.666-6.077 10.601-7.154a.877.877 0 0 1 1.105.775l.511 6.339.145.028c.128.027.26.059.396.097l.205.061a5.497 5.497 0 0 1 3.117 2.464l.076.137.235-.092c1.389-.529 3.502-1.088 4.629-1.19l.122-.01c1.571-.102 2.932.052 3.74.464.24.122.411.348.462.612.189.963-.416 3.978-.878 5.403-.537 1.649-2.287 4.984-3.241 6.139l-.039.046-.023.082c-.765 2.718-.832 5.072-.012 8.291l.085.325c.408 1.522.972 2.739 1.86 4.109.402.622 1.861 2.627 2.643 3.701.171.235.31.426.397.548l.397.563a60.067 60.067 0 0 1 9.336 21.552 64.88 64.88 0 0 1 1.415 12.577c.009.581-.002 1.066-.05 1.909l-.131 2.108c-.024.377-.04.679-.053.97l-.023.645c-.067 2.434.168 4.124.856 5.392.207.382.346.614.543.876.368.491.746.782 1.1.838 1.025.162 2.332-1.267 3.78-3.652l.218-.365c1.687-2.859 2.737-6.486 3.18-12.925l.021-.324c.103-1.586.114-2.63.071-3.983l-.054-1.718a63.492 63.492 0 0 1 .035-4.131l.04-.971c.228-5.138.428-7.431 1.063-10.613l.092-.45c1.925-9.313 6.074-15.117 13.707-16.505a.876.876 0 0 1 1.019.703c.435 2.348-.396 4.067-2.802 7.229l-.182.239c-.336.443-.517.681-.658.873l-.431.605c-3.228 4.681-3.974 9.822-3.771 19.781l.074 3.491c.035 1.88.038 3.017.008 4.349l-.015.54c-.176 5.418-1.201 11.467-3.024 16.546-2.399 6.679-6.01 11.379-10.913 13.291-2.561.999-5.445 1.54-8.164 1.524a799.745 799.745 0 0 1-10.731-.139l-13.089-.264c-6.453-.128-11.065-.194-15.507-.206l-3.076-.001c-.606-.005-.95-.053-1.369-.242-1.29-.585-1.725-2.254-1.169-3.586.384-.92.968-1.504 2.172-2.415.796-.601 1.396-1.469 1.819-2.609 1.021-2.75 1.068-6.162.404-10.33l-.115-.738c-1.27-8.354-1.463-16.442-.477-24.152.595-4.663 1.451-8.727 2.701-12.401l.168-.491 1.261-3.617c1.04-3.021 1.561-4.779 1.964-6.75l.104-.528c.156-.823.275-1.62.357-2.398.197-1.882.123-3.462-.235-6.502l-.276-2.295c-.276-2.406-.35-3.723-.255-5.225l.023-.325c.201-2.583.974-4.832 2.506-6.925Zm10.528.817-.483-5.973c-3.215 1.058-6.253 2.945-8.63 6.192-2.317 3.164-2.587 5.789-1.856 12.001l.114.941c.408 3.347.522 5.094.345 7.097l-.037.38a30.898 30.898 0 0 1-.378 2.542c-.449 2.361-1 4.245-2.22 7.774l-1.258 3.607-.231.689c-1.127 3.434-1.915 7.247-2.473 11.612-.992 7.764-.763 15.934.585 24.392l.06.39c.643 4.265.563 7.824-.552 10.826-.533 1.436-1.325 2.581-2.405 3.397-.964.73-1.386 1.152-1.611 1.693-.222.53-.057 1.163.274 1.313.147.067.339.086.798.085l1.626-.001c4.112.002 8.228.049 13.68.149l14.647.294c3.644.07 6.344.113 8.959.141l3.348.027c2.497.015 5.16-.485 7.517-1.404 8.043-3.135 12.546-15.674 12.836-28.781l.003-.156c.025-1.19.022-2.253-.007-3.913l-.092-4.491c-.156-9.934.705-15.216 4.236-20.222.105-.148.186-.262.28-.391l1.207-1.6c1.491-2 2.17-3.258 2.231-4.497l.001-.033-.188.048c-5.99 1.573-9.388 6.569-11.103 14.585l-.062.299c-.608 2.941-.835 4.995-1.043 9.131l-.078 1.654c-.104 2.351-.112 3.727-.06 5.477l.049 1.486c.037 1.37.014 2.488-.104 4.207-.461 6.7-1.587 10.591-3.418 13.695-.743 1.26-1.291 2.088-2.036 2.94-1.207 1.378-2.436 2.126-3.748 1.918-.89-.141-1.612-.697-2.228-1.518a8.006 8.006 0 0 1-.681-1.092c-.901-1.661-1.162-3.694-1.059-6.564.014-.39.031-.751.059-1.219l.093-1.469c.077-1.219.102-1.793.098-2.403l-.018-.913a62.82 62.82 0 0 0-1.36-11.5 58.309 58.309 0 0 0-9.363-21.351l-.428-.589c-.691-.951-2.012-2.766-2.583-3.605l-.157-.235c-.983-1.517-1.624-2.9-2.082-4.608-1.025-3.82-.936-6.614.019-9.841a.872.872 0 0 1 .236-.387l.052-.053c.669-.722 2.463-4.106 2.949-5.598.296-.912.723-2.931.82-3.972l.007-.095-.079-.017c-.523-.11-1.266-.156-2.109-.114l-.182.011c-.569.037-1.711.29-2.88.635-1.054.311-1.975.662-2.068.746a.877.877 0 0 1-1.412-.371 3.76 3.76 0 0 0-.925-1.481 3.8 3.8 0 0 0-1.538-.916 4.18 4.18 0 0 0-1.075-.197.875.875 0 0 1-.829-.804Z" clip-rule="evenodd"/>
  <path fill="#84AAA3" d="M295.791 355.217a.876.876 0 1 1 .698 1.608c-4.091 1.776-7.896 4.708-10.449 9.598-2.071 3.965-2.646 8.199-2.093 12.473a24.94 24.94 0 0 0 .985 4.414c.293.911.573 1.617.834 2.188a.876.876 0 0 1-.437 1.163l-12.054 5.439a.877.877 0 1 1-.722-1.599l11.271-5.085-.056-.141a23.566 23.566 0 0 1-.419-1.166l-.086-.263a26.578 26.578 0 0 1-1.055-4.725c-.596-4.61.027-9.201 2.277-13.51 2.771-5.307 6.88-8.473 11.306-10.394Zm-19.849-3.633a.876.876 0 0 1 .846.821l.001.084-.811 23.987a.876.876 0 0 1-1.751.026l-.001-.085.811-23.987a.875.875 0 0 1 .905-.846Zm-10.851-41.407a.877.877 0 0 1 1.107-.404l.077.035 13.417 7.036a.878.878 0 0 1-.738 1.589l-.076-.036-13.418-7.036a.877.877 0 0 1-.369-1.184Zm14.194 10.425a.877.877 0 0 1 .084 1.75l-.084.004h-17.662a.877.877 0 0 1-.085-1.75l.085-.004h17.662Zm25.52-2.532a.877.877 0 0 1 .084 1.75l-.084.004h-17.33a.877.877 0 0 1-.085-1.75l.085-.004h17.33Zm-18.422 4.488a.875.875 0 0 1 1.042-.551l.081.025 17.865 6.468a.877.877 0 0 1-.516 1.674l-.081-.025-17.865-6.469a.875.875 0 0 1-.526-1.122Zm16.857 54.181c.484-.03.9.337.93.82.072 1.142.024 2.38-.252 3.818a14.775 14.775 0 0 1-2.622 6.031c-2.102 2.857-4.701 4.452-7.386 5.337a.877.877 0 0 1-.55-1.665c2.371-.782 4.671-2.194 6.524-4.712a13.028 13.028 0 0 0 2.312-5.321c.245-1.276.287-2.372.224-3.378a.877.877 0 0 1 .82-.93Zm99.072 20.399a.877.877 0 0 1 .084 1.75l-.084.004H17.51a.877.877 0 0 1-.084-1.75l.085-.004h384.801Z"/>
  <path fill="#84AAA3" fill-rule="evenodd" d="M34.472 86.23h48.295c.484 0 .876.392.876.877v19.925a.876.876 0 0 1-.876.876H34.472a.876.876 0 0 1-.877-.876V87.107c0-.485.393-.877.877-.877Zm47.418 19.925V87.984H35.349v18.171h46.54Z" clip-rule="evenodd"/>
  <path fill="#84AAA3" fill-rule="evenodd" d="M82.766 86.188h48.295c.485 0 .877.392.877.876v19.925a.877.877 0 0 1-.877.877H82.766a.877.877 0 0 1-.876-.877V87.064c0-.484.392-.876.876-.876Zm47.418 19.923v-18.17h-46.54v18.17h46.54Z" clip-rule="evenodd"/>
  <path fill="#84AAA3" d="M151.728 86.188a.876.876 0 0 1 .084 1.749l-.084.004h-19.79v18.17l9.743.001c.456 0 .83.348.873.792l.004.085c0 .456-.348.83-.793.873l-.084.004h-10.619a.877.877 0 0 1-.873-.793l-.004-.084V87.064c0-.456.348-.83.792-.872l.085-.004h20.666Z"/>
  <path fill="#84AAA3" fill-rule="evenodd" d="M58.62 106.096h48.294c.484 0 .877.393.877.877v19.925a.877.877 0 0 1-.877.876H58.619a.876.876 0 0 1-.876-.876v-19.925c0-.484.392-.877.876-.877Zm47.417 19.924v-18.171H59.496v18.171h46.541ZM58.62 66.306h48.294c.484 0 .877.392.877.876v19.925a.877.877 0 0 1-.877.877H58.619a.877.877 0 0 1-.876-.877V67.182c0-.484.392-.876.876-.876Zm47.417 19.924V68.059H59.496v18.17h46.541Z" clip-rule="evenodd"/>
  <path fill="#84AAA3" d="M34.472 106.155a.877.877 0 0 1 .084 1.749l-.084.004H.877a.876.876 0 0 1-.085-1.749l.085-.004h33.595Zm2.091-19.925a.877.877 0 0 1 .085 1.75l-.085.004h-13.64a.877.877 0 0 1-.083-1.75l.084-.004h13.64Zm46.203-37.19c.456 0 .831.347.873.792l.004.084v17.266a.876.876 0 0 1-1.75.085l-.003-.085V49.916c0-.484.392-.877.876-.877Z"/>
  <path fill="#84AAA3" d="M95.047 49.04a.877.877 0 0 1 .085 1.749l-.085.004h-29.06a.876.876 0 0 1-.085-1.75l.085-.004h29.06Zm46.413 17.266a.877.877 0 0 1 .085 1.75l-.085.003h-34.546a.876.876 0 0 1-.085-1.75l.085-.003h34.546Zm-82.841 59.715a.877.877 0 0 1 .084 1.749l-.084.004H44.553a.876.876 0 0 1-.085-1.749l.084-.004H58.62Zm62.014 0a.877.877 0 0 1 .085 1.749l-.085.004h-13.719a.876.876 0 0 1-.085-1.749l.085-.004h13.719Z"/>
  <path fill="#84AAA3" fill-rule="evenodd" d="M306.386 252.34h48.294c.484 0 .877.393.877.877v19.924a.877.877 0 0 1-.877.877h-48.294a.877.877 0 0 1-.877-.877v-19.924c0-.484.393-.877.877-.877Zm47.417 19.924v-18.171h-46.541v18.171h46.541Z" clip-rule="evenodd"/>
  <path fill="#84AAA3" fill-rule="evenodd" d="M354.68 252.296h48.295c.484 0 .877.392.877.877v19.924a.877.877 0 0 1-.877.877H354.68a.877.877 0 0 1-.877-.877v-19.924c0-.485.393-.877.877-.877Zm47.418 19.925V254.05h-46.541v18.171h46.541Z" clip-rule="evenodd"/>
  <path fill="#84AAA3" d="M423.641 252.296a.877.877 0 0 1 .085 1.75l-.085.004h-19.789v18.171h9.743c.456 0 .83.348.873.792l.004.084a.877.877 0 0 1-.792.873l-.085.004h-10.62a.878.878 0 0 1-.873-.792l-.004-.085v-19.924c0-.455.348-.83.793-.873l.084-.004h20.666Zm-44.813 19.925c.456 0 .83.347.873.792l.004.084v19.925a.877.877 0 0 1-1.75.085l-.004-.085v-19.925c0-.484.392-.876.877-.876Z"/>
  <path fill="#84AAA3" d="M378.828 232.415c.456 0 .83.348.873.792l.004.085-.001 19.047h47.419c.456 0 .83.348.873.793l.004.084a.877.877 0 0 1-.793.873l-.084.004h-48.295a.876.876 0 0 1-.873-.792l-.004-.085v-19.924c0-.484.392-.877.877-.877Zm-72.442 39.849a.877.877 0 0 1 .084 1.75l-.084.004h-21.037a.877.877 0 0 1-.084-1.75l.084-.004h21.037Zm2.092-19.924a.876.876 0 0 1 .084 1.749l-.084.004h-13.64a.877.877 0 0 1-.085-1.75l.085-.003h13.64Z"/>
  <path fill="#84AAA3" fill-rule="evenodd" d="M347.528 397.376c-6.966-3.185-10.031-11.413-6.847-18.379 3.185-6.966 11.412-10.031 18.378-6.847 6.965 3.184 10.032 11.413 6.847 18.379-3.184 6.965-11.412 10.031-18.378 6.847Zm16.783-7.576c2.782-6.086.104-13.274-5.981-16.055l-.193-.086c-6.043-2.639-13.109.046-15.862 6.067-2.781 6.086-.103 13.273 5.982 16.055s13.273.103 16.054-5.981Z" clip-rule="evenodd"/>
  <path fill="#84AAA3" d="M349.302 371.491a.878.878 0 0 1 1.162.431 13.826 13.826 0 0 1 .013 11.553 13.826 13.826 0 0 1-8.745 7.55.877.877 0 0 1-.489-1.684 12.079 12.079 0 0 0 7.64-6.594 12.076 12.076 0 0 0-.012-10.092.878.878 0 0 1 .431-1.164Zm15.559 7.012a.877.877 0 1 1 .488 1.684 12.077 12.077 0 0 0-7.639 6.594 12.078 12.078 0 0 0 .012 10.093.878.878 0 0 1-1.594.732 13.836 13.836 0 0 1-.013-11.554 13.83 13.83 0 0 1 8.746-7.549Z"/>
  <path fill="#84AAA3" fill-rule="evenodd" d="M301.093 29.396c0 16.234-13.161 29.396-29.396 29.396s-29.396-13.162-29.396-29.396C242.301 13.16 255.462 0 271.697 0s29.396 13.161 29.396 29.396Z" clip-rule="evenodd"/>
  <path fill="#8AF5D1" d="M263.15 36.315c.754-6.204 6.266-11.12 11.824-9.093 4.239 1.544 6.477 5.177 6.823 10.082.284 4.04-.783 8.742-2.629 12.319a.583.583 0 1 1-1.038-.536c1.751-3.393 2.769-7.884 2.501-11.7-.315-4.481-2.297-7.697-6.057-9.067-4.741-1.728-9.591 2.597-10.264 8.136-.477 3.93.44 8.288 2.463 11.607a.585.585 0 0 1-.998.608c-2.162-3.544-3.134-8.167-2.625-12.356Z"/>
  <path fill="#8AF5D1" d="M262.025 15.47a4.405 4.405 0 0 1 1.989.288c1.106.436 2.071 1.227 3.047 2.376 1.951 2.303 3.131 4.805 4.603 9.125a.584.584 0 1 1-1.107.377l-.229-.664c-1.323-3.785-2.425-6.037-4.158-8.082-.863-1.015-1.687-1.691-2.584-2.044a3.253 3.253 0 0 0-1.47-.211c-.736.054-1.502.348-2.242.843a4.43 4.43 0 0 0-1.319 1.407c-.549.906-.77 1.954-.599 2.903.221 1.21 1.035 2.346 2.35 3.456l.689.57c.241.195.503.405.823.66l1.625 1.286c1.402 1.114 2.168 1.758 3.034 2.564a.584.584 0 1 1-.796.856l-.415-.38c-.727-.655-1.476-1.273-2.733-2.27l-1.95-1.547a59.44 59.44 0 0 1-1.03-.845c-1.504-1.27-2.468-2.615-2.747-4.141-.223-1.242.058-2.576.747-3.714a5.602 5.602 0 0 1 1.67-1.776c.9-.602 1.854-.967 2.802-1.037Zm17.293 6.013c2.574-2.253 5.879-3.051 8.856-1.922 2.789 1.064 4.509 3.77 3.647 6.462-.384 1.206-1.225 2.213-2.527 3.252a18.409 18.409 0 0 1-4.465 2.59 20.076 20.076 0 0 1-4.704 1.276.585.585 0 0 1-.167-1.157 18.88 18.88 0 0 0 4.429-1.202 17.238 17.238 0 0 0 4.179-2.422c1.137-.907 1.842-1.751 2.142-2.693.652-2.037-.693-4.152-2.949-5.014-2.546-.965-5.404-.275-7.672 1.71-1.728 1.509-3.123 3.644-3.91 5.946a.584.584 0 1 1-1.106-.377c.852-2.493 2.361-4.802 4.247-6.45Zm-19.993 15.2a.583.583 0 0 1 .72-.29l.064.027 3.753 1.867a.585.585 0 0 1-.458 1.074l-.062-.027-3.754-1.867a.584.584 0 0 1-.263-.784Zm24.653 4.218a.585.585 0 0 1 .685.945l-.055.04-3.63 2.323a.584.584 0 0 1-.685-.945l.055-.04 3.63-2.323Z"/>
  <path fill="#8AF5D1" d="M257.216 20.683a.584.584 0 0 1 .261 1.137l-.067.015-5.424.913a.584.584 0 0 1-.26-1.137l.066-.015 5.424-.913Zm-5.862-5.032a.584.584 0 0 1 .706-.325l.064.024 6.162 2.694a.584.584 0 0 1-.404 1.095l-.065-.023-6.162-2.695a.585.585 0 0 1-.301-.77Zm4.785-4.879a.586.586 0 0 1 .758.174l.036.058 3.128 5.708a.584.584 0 0 1-.989.62l-.036-.058-3.128-5.708a.585.585 0 0 1 .231-.794Zm6.84-1.546c.3.013.536.25.557.542l.001.068-.281 6.24a.585.585 0 0 1-1.168.016v-.068l.281-6.24a.585.585 0 0 1 .61-.558Z"/>
  <path fill="#8AF5D1" fill-rule="evenodd" d="M265.663 23.11a1.456 1.456 0 1 1-2.912-.002 1.456 1.456 0 0 1 2.912.001Zm5.137 12.378a1.456 1.456 0 1 1-2.912 0 1.456 1.456 0 0 1 2.912 0Zm14.446-10.142a1.455 1.455 0 1 1-2.91 0 1.455 1.455 0 0 1 2.91 0Zm-8.048 14.452a1.456 1.456 0 1 1-2.912 0 1.456 1.456 0 0 1 2.912 0Zm-4.641 5.181a1.455 1.455 0 1 1-2.91.001 1.455 1.455 0 0 1 2.91-.001Z" clip-rule="evenodd"/>
  <path fill="#8AF5D1" d="M284.115 31.007a.586.586 0 0 1 .749-.209l.059.034 2.668 1.717a.585.585 0 0 1-.574 1.016l-.059-.034-2.667-1.716a.585.585 0 0 1-.176-.808Zm.003-16.242a.585.585 0 0 1 .493.6l-.006.069-.723 4.591a.584.584 0 0 1-1.161-.114l.006-.068.723-4.59a.584.584 0 0 1 .6-.494l.068.006Zm9.334 5.703a.586.586 0 0 1 .568 1.02l-.06.033-2.901 1.398a.584.584 0 0 1-.567-1.02l.06-.033 2.9-1.398Zm-23.822-3.183a.584.584 0 0 1 1.064.477l-.028.062-1.79 3.44a.586.586 0 0 1-1.065-.477l.028-.062 1.791-3.44Zm-7.445 9.891a.586.586 0 0 1 .556 1.026l-.06.033-3.46 1.62a.585.585 0 0 1-.556-1.027l.061-.033 3.459-1.62Z"/>
  <path fill="#84AAA3" fill-rule="evenodd" d="M143.066 171.124c0 15.313-12.414 27.727-27.728 27.727-15.312 0-27.727-12.414-27.727-27.727s12.415-27.727 27.727-27.727c15.314 0 27.728 12.414 27.728 27.727Z" clip-rule="evenodd"/>
  <path fill="#8AF5D1" d="M118.005 182.703a.585.585 0 0 1 .681.948l-.073.051a24.022 24.022 0 0 1-.729.449c-.41.24-.84.468-1.3.682-2.479 1.152-5.108 1.603-7.786.949-1.98-.485-3.6-1.411-4.954-2.58a.584.584 0 0 1 .033-.911c.665-.494 1.218-1.115 1.582-1.928a5.87 5.87 0 0 0 .474-2.208.585.585 0 0 1 1.169.026 7.068 7.068 0 0 1-.575 2.658 5.833 5.833 0 0 1-1.331 1.87l-.05.046.06.047a10.511 10.511 0 0 0 3.592 1.772l.278.073c2.386.582 4.757.175 7.015-.875a14.14 14.14 0 0 0 1.203-.63l.212-.126.289-.179.21-.134Zm-19.156-17.565a.585.585 0 0 1 1.03.185l.039.182a6.563 6.563 0 0 0 .902 2.116c.831 1.262 2.028 2.053 3.697 2.178a.585.585 0 1 1-.087 1.165c-2.055-.154-3.567-1.152-4.587-2.699a7.585 7.585 0 0 1-.707-1.362l-.021-.055-.078.132a10.514 10.514 0 0 0-1.374 4.45l-.018.274c-.1 1.738.229 3.368.873 4.871.218.51.45.962.694 1.372l.052.085.034-.09.088-.218a5.727 5.727 0 0 1 1.731-2.294 7.27 7.27 0 0 1 1.306-.819c.813-.393 1.604-.569 2.345-.425a.585.585 0 0 1-.156 1.157l-.068-.01c-.448-.087-1.005.037-1.611.331a6.013 6.013 0 0 0-1.093.685 4.55 4.55 0 0 0-1.378 1.831 5.102 5.102 0 0 0-.368 1.324.584.584 0 0 1-1.04.277 12.195 12.195 0 0 1-1.611-2.745 11.88 11.88 0 0 1-.966-5.399c.151-2.647 1.082-4.756 2.372-6.499Z"/>
  <path fill="#8AF5D1" d="M118.318 160.651c6.709 0 12.532 3.598 14.172 8.698a.584.584 0 0 1-1.113.358c-1.473-4.579-6.826-7.887-13.059-7.887-7.458 0-13.457 4.691-13.457 10.396 0 5.706 5.997 10.396 13.457 10.396 3.507 0 6.799-1.043 9.283-2.874a.584.584 0 1 1 .694.94c-2.688 1.983-6.224 3.103-9.977 3.103-8.051 0-14.626-5.141-14.626-11.565 0-6.422 6.576-11.565 14.626-11.565Z"/>
  <path fill="#8AF5D1" d="M106.903 157.303c2.782-1.411 5.191-1.396 8.373-.692 3.317.73 6.033 2.507 8.204 4.87a.585.585 0 0 1-.861.791c-2.021-2.2-4.538-3.846-7.595-4.52-2.941-.65-5.114-.663-7.593.593a9.509 9.509 0 0 0-2.898 2.269l-.142.167.116.108a9.278 9.278 0 0 1 2.08 2.966l.113.263c.25.61.429 1.231.546 1.859a.584.584 0 1 1-1.15.212 8.26 8.26 0 0 0-.478-1.628 8.224 8.224 0 0 0-2.403-3.259.584.584 0 0 1-.093-.801c.961-1.276 2.18-2.387 3.781-3.198Z"/>
  <path fill="#8AF5D1" fill-rule="evenodd" d="M124.99 169.281c.806-.697 1.635-1.207 2.47-1.432 2.646-.712 5.975 1.308 8.024 4.808a.584.584 0 0 1 .051.476 18.336 18.336 0 0 1-3.192 5.908 18.406 18.406 0 0 1-3.871 3.601.585.585 0 0 1-.918-.478 9.679 9.679 0 0 0-.993-4.285c-.977-1.995-2.401-3.316-3.977-4.223a.584.584 0 0 1-.249-.727 9.148 9.148 0 0 1 1.681-2.693l.178-.193c.244-.257.51-.514.796-.762Zm9.349 3.741-.086-.139c-1.816-2.862-4.519-4.435-6.489-3.905-.635.171-1.324.595-2.009 1.187a9.51 9.51 0 0 0-1.05 1.058c-.402.48-.724.976-.985 1.485l-.102.207.13.083a10.73 10.73 0 0 1 3.739 4.122l.124.246c.577 1.18.897 2.345 1.033 3.487l.02.193.236-.188a17.132 17.132 0 0 0 2.294-2.26l.239-.29a17.209 17.209 0 0 0 2.991-5.537l-.085.251Z" clip-rule="evenodd"/>
  <path fill="#8AF5D1" fill-rule="evenodd" d="M130.211 172.014a1.103 1.103 0 1 1-2.206 0 1.103 1.103 0 0 1 2.206 0Z" clip-rule="evenodd"/>
  <path fill="#8AF5D1" d="M116.46 167.596a.585.585 0 0 1 .091 1.166c-1.942.153-3.493 1.658-3.615 3.418-.145 2.073 1.708 3.983 4.002 3.965a.584.584 0 1 1 .009 1.169c-2.966.023-5.37-2.454-5.178-5.215.164-2.347 2.181-4.305 4.691-4.503Z"/>
  <path fill="#8AF5D1" fill-rule="evenodd" d="M137.345 166.279a1.505 1.505 0 1 1-3.01-.002 1.505 1.505 0 0 1 3.01.002Zm-3.73-5.257a.927.927 0 1 1-1.854 0 .927.927 0 0 1 1.854 0Z" clip-rule="evenodd"/>
  <path fill="#84AAA3" fill-rule="evenodd" d="M356.506 195.08c0 21.644-17.547 39.19-39.19 39.19-21.644 0-39.19-17.546-39.19-39.19 0-21.643 17.546-39.19 39.19-39.19 21.643 0 39.19 17.547 39.19 39.19Z" clip-rule="evenodd"/>
  <path fill="#8AF5D1" fill-rule="evenodd" d="M343.683 196.134c-1.702-2.28-3.521-4.474-5.132-6.822-1.301-1.893-2.197-3.955-2.633-6.239-.729-3.808-4.013-6.671-7.866-7.056-2.13-.213-4.193.093-6.258.551-3.094.686-6.223.894-9.373.484-1.514-.195-2.947-.678-4.378-1.231-4.135-1.6-8.038-1.298-11.475 1.747-1.431 1.268-2.36 2.907-3.137 4.632-.114.253-.076.495.098.721.339.442.714.851 1.129 1.22a.755.755 0 0 1 .274.629 159.543 159.543 0 0 0-.003 3.245c.003.44.206.672.548.671.34-.002.544-.238.565-.667.007-.141.001-.284.001-.426v-2.252c.64.411 1.208.782 1.783 1.143.156.098.125.241.125.378.002.953.001 1.907.001 2.861 0 .099-.01.2.001.298.034.338.206.566.557.595.311.025.548-.242.553-.627.01-.797.018-1.595-.002-2.391-.009-.362.06-.459.406-.268a7.45 7.45 0 0 0 1.452.616c.26.079.349.213.343.488-.017.954-.007 1.908-.006 2.862 0 .113-.004.228.006.341.031.331.213.534.546.539.315.005.498-.194.545-.495.028-.181.018-.369.018-.554.002-.768.011-1.537-.004-2.306-.005-.284.047-.374.353-.279.501.155 1.013.282 1.529.382.289.057.402.16.395.471-.021.925-.008 1.85-.007 2.776 0 .127 0 .257.022.381.055.304.234.492.553.484.319-.007.488-.202.529-.508.016-.127.015-.255.015-.383.001-.855.006-1.709-.003-2.563-.002-.241.025-.374.325-.318.63.12 1.266.198 1.908.206.243.003.303.117.301.346-.01.939-.004 1.878-.004 2.818 0 .1-.011.201.003.298.046.337.22.574.58.557.353-.017.529-.247.529-.599.003-.968.018-1.936-.006-2.904-.01-.36.099-.458.452-.445 1.038.036 2.077-.029 3.115.07.716.069 1.433.184 2.046.55 1.397.834 2.781.724 4.206.109 1.74-.751 3.402-1.654 5.054-2.575.37-.206.484-.524.319-.808-.163-.283-.496-.357-.864-.156-1.499.816-2.988 1.653-4.56 2.326-.404.172-.821.323-1.241.452-.664.202-1.318.176-1.947-.152-1.361-.708-2.829-.937-4.34-.917-2.424.031-4.837-.055-7.212-.601-1.766-.408-3.482-.969-5.095-1.802-1.688-.872-3.251-1.923-4.552-3.332-.193-.209-.212-.363-.087-.624.931-1.952 2.182-3.638 4.044-4.791 2.342-1.449 4.861-1.605 7.486-.961.813.199 1.524.623 2.295.91 2.466.92 5.028 1.162 7.638 1.12 2.591-.042 5.107-.563 7.632-1.078 2.148-.437 4.301-.45 6.383.38 1.966.782 3.308 2.209 4.16 4.124.279.626.469 1.278.603 1.951.511 2.595 1.717 4.864 3.289 6.96 1.527 2.038 3.055 4.076 4.585 6.113.371.494.686.617.97.387.283-.23.247-.617-.085-1.062Z" clip-rule="evenodd"/>
  <path fill="#8AF5D1" fill-rule="evenodd" d="M293.364 182.17c.934-2.071 1.872-3.519 3.156-4.656l.178-.155c3.273-2.799 7.08-3.266 11.372-1.606l.304.116c1.599.605 2.808.95 4.057 1.111 3.047.397 6.157.224 9.347-.483l.348-.076c2.299-.489 4.115-.657 5.933-.476 3.922.391 7.202 3.31 7.931 7.115l.07.351c.449 2.097 1.3 4.039 2.551 5.86a63.786 63.786 0 0 0 2.07 2.835l2.407 3.12.653.865c.355.475.391.904.073 1.162-.325.264-.683.122-1.074-.4l-4.585-6.113c-1.723-2.297-2.824-4.557-3.303-6.989l-.055-.263a8.778 8.778 0 0 0-.543-1.674c-.874-1.963-2.232-3.333-4.12-4.085-1.919-.765-3.993-.854-6.342-.376l-1.371.277c-2.731.541-4.417.773-6.274.803-2.953.047-5.398-.279-7.665-1.125a8.777 8.777 0 0 1-.498-.204l-.761-.34a6.397 6.397 0 0 0-.854-.318l-.173-.046c-2.783-.682-5.23-.409-7.43.953-1.72 1.065-3.003 2.633-4.017 4.761-.113.235-.097.356.075.542 1.2 1.299 2.677 2.358 4.531 3.316 1.508.778 3.173 1.357 5.078 1.796 2.098.482 4.268.637 7.195.599 1.668-.021 3.097.261 4.375.926.59.308 1.22.351 1.891.146.423-.129.836-.279 1.234-.449.899-.384 1.639-.749 2.857-1.401l1.697-.922c.394-.215.774-.142.962.183.19.327.052.687-.346.909-2.018 1.125-3.333 1.812-4.69 2.416l-.371.163c-1.572.678-2.945.678-4.273-.114l-.112-.064c-.494-.267-1.063-.395-1.903-.476a12.383 12.383 0 0 0-.85-.05l-.39-.007-.821-.001c-.272.001-.469 0-.641-.002l-.472-.011c-.261.001-.321.08-.313.372.008.327.012.619.013.986l-.007 1.92c0 .401-.215.653-.599.671-.377.018-.6-.217-.656-.619a.912.912 0 0 1-.007-.11l.004-.198-.001-2.065.005-.755c.002-.21-.045-.269-.229-.271l-.263-.008a11.226 11.226 0 0 1-1.657-.2l-.05-.008c-.137-.02-.178.009-.187.146l-.002.108.001.204.001 2.513a1.827 1.827 0 0 1-.015.239c-.047.354-.255.564-.599.572-.345.008-.563-.193-.627-.544a1.794 1.794 0 0 1-.022-.276l-.006-1.731c0-.292.002-.554.005-.802l.007-.364c.006-.261-.067-.344-.336-.397l-.391-.081a14.381 14.381 0 0 1-1.146-.303l-.051-.015c-.158-.044-.2-.025-.207.12v.103c.004.199.006.381.007.586l-.001 1.991c-.001.12-.007.206-.021.295-.055.35-.278.563-.618.558-.363-.006-.582-.23-.617-.606a.947.947 0 0 1-.004-.055l-.004-.122-.001-2.267.008-.767c.005-.246-.066-.349-.291-.416l-.249-.081a7.622 7.622 0 0 1-1.217-.542l-.052-.028c-.228-.12-.254-.078-.246.23l.01.587c.004.348.003.72-.001 1.174l-.007.633c-.006.424-.275.729-.632.699-.372-.031-.584-.27-.623-.659a.906.906 0 0 1-.006-.109l.004-.198v-1.882l-.001-.979.002-.121c-.001-.107-.022-.15-.094-.195l-1.67-1.071.001 2.144.001.184v.121l-.003.1c-.023.462-.254.733-.638.735-.391.002-.618-.271-.621-.744a184.74 184.74 0 0 1-.004-2.438l.007-.807a.68.68 0 0 0-.25-.574 8.862 8.862 0 0 1-1.138-1.23c-.192-.25-.23-.52-.107-.796Zm4.228 4.08.272.173c.141.087.167.183.161.382v2.919l-.004.199c0 .033.002.063.005.091.033.324.193.505.49.529.265.022.469-.21.474-.555.01-.763.013-1.307.008-1.804l-.01-.584c-.011-.436.132-.546.515-.334l.235.124c.392.201.794.364 1.202.487.289.087.401.249.396.559-.005.257-.008.493-.009.765l.002 2.325.006.105c.028.304.189.468.474.473.264.003.428-.153.472-.434.015-.102.02-.202.018-.368l.003-1.177c.001-.382 0-.658-.003-.916l-.005-.386c-.006-.352.108-.456.447-.351l.373.11c.377.105.76.196 1.149.271.336.066.462.208.454.544-.009.416-.012.848-.012 1.386l.006 1.505c.001.102.007.18.02.251.051.284.211.431.479.425.269-.007.42-.159.458-.446.011-.082.015-.163.015-.296l.002-1.295-.005-1.344c-.003-.33.091-.451.412-.39.672.128 1.294.197 1.895.205.273.003.376.135.373.419-.003.24-.004.485-.005.754l.001 2.065-.004.197a.815.815 0 0 0 .006.09c.046.334.211.507.504.494.302-.015.46-.2.46-.527l.007-1.523c.001-.285 0-.521-.002-.741l-.011-.637c-.011-.4.13-.535.528-.521.191.007.361.01.587.012h1.141l.532.008c.312.009.59.025.859.051.925.089 1.533.235 2.076.56l.143.081c1.24.684 2.522.66 3.997.024 1.241-.536 2.393-1.115 4.014-2.002l1.034-.571c.331-.184.436-.457.291-.708-.145-.251-.437-.307-.766-.128l-1.337.728c-1.317.712-2.097 1.106-2.975 1.491l-.254.111c-.403.171-.821.324-1.249.454-.707.216-1.376.17-2.002-.157-1.255-.653-2.66-.93-4.305-.909-2.937.038-5.118-.117-7.229-.603-1.917-.442-3.593-1.024-5.112-1.808-1.869-.965-3.36-2.034-4.572-3.347-.213-.23-.238-.416-.1-.705 1.025-2.151 2.325-3.74 4.072-4.822 2.236-1.383 4.722-1.661 7.542-.97.366.09.655.197 1.172.426l.732.326c.149.065.267.112.399.161l.294.107c2.165.759 4.509 1.054 7.317 1.009 1.699-.028 3.256-.226 5.614-.676l.635-.124.623-.125.655-.133.374-.074c2.26-.421 4.271-.307 6.142.438 1.925.766 3.31 2.164 4.2 4.162.268.602.465 1.249.607 1.967l.063.301c.504 2.295 1.575 4.444 3.214 6.63l4.584 6.112c.349.464.621.573.866.374.244-.198.216-.541-.098-.961a95.59 95.59 0 0 0-.575-.763l-2.079-2.693a80.96 80.96 0 0 1-2.04-2.737l-.439-.631c-1.332-1.94-2.214-4.015-2.645-6.267l-.039-.189c-.786-3.648-3.97-6.429-7.762-6.808-1.891-.189-3.784.006-6.235.55l-.437.093c-3.054.632-6.036.773-8.961.392-1.34-.173-2.632-.554-4.395-1.236l-.235-.089c-4.224-1.563-7.954-1.022-11.165 1.823-1.266 1.121-2.194 2.553-3.12 4.608-.1.225-.07.437.09.645.344.449.716.853 1.119 1.211a.824.824 0 0 1 .299.684c-.007.53-.01 1.069-.01 1.656l.007 1.588c.003.397.171.599.474.598.299-.001.473-.206.493-.597.001-.032.003-.062.003-.095l-.002-2.58.113-.062 1.509.971Z" clip-rule="evenodd"/>
  <path fill="#8AF5D1" fill-rule="evenodd" d="M326.246 200.129c1.103-1.741 1.314-3.634.861-5.621-.106-.462-.341-.667-.677-.595-.33.071-.486.354-.389.818.315 1.508.232 2.967-.475 4.364-.392.775-.956 1.408-1.597 1.981-.152.137-.332.206-.529.258-6.582 1.744-13.163 3.493-19.745 5.237-1.468.389-2.703-.251-3.254-1.666-.261-.671-.036-1.152.666-1.335a25.673 25.673 0 0 0 1.922-.57c2.531-.874 4.81-2.182 6.815-3.96.95-.843 1.868-1.716 2.587-2.769.634-.928.943-1.974.986-3.09.033-.838.029-1.679.027-2.518-.001-.446-.234-.71-.572-.697-.319.013-.529.275-.536.697-.012.782.003 1.565-.027 2.348-.049 1.267-.516 2.373-1.336 3.341a18.445 18.445 0 0 1-3.463 3.152c-.066.046-.123.123-.277.093 0-.795.001-1.599-.001-2.403-.001-.155.003-.314-.026-.466-.058-.306-.253-.48-.568-.464-.318.016-.49.213-.512.524-.017.24-.009.484-.01.725 0 .84-.011 1.68.005 2.52.006.277-.072.45-.33.57-.438.203-.87.423-1.295.654-.267.146-.369.118-.363-.214.015-.796.006-1.594.005-2.39-.001-.128-.002-.257-.018-.384-.041-.316-.241-.494-.545-.492-.305.001-.509.187-.537.5-.025.282-.018.569-.019.853-.003.797-.008 1.595.003 2.392.003.232-.058.367-.298.433-.357.097-.707.219-1.055.344-.301.107-.428.06-.419-.304.023-.91.008-1.822.008-2.733 0-.085.007-.171 0-.256-.03-.384-.252-.641-.567-.621-.383.023-.546.263-.547.628-.002 1.04-.011 2.078.003 3.118.004.395-.05.705-.372 1.015-.565.543-.7 1.243-.439 2.006.702 2.053 2.603 3.074 4.714 2.514 5.125-1.36 10.251-2.715 15.37-4.097.472-.127.807-.032 1.175.233 3.474 2.494 5.141 5.9 5.15 10.148.003 1.736 0 3.473-.001 5.21 0 .214 0 .425.116.62.166.28.41.401.719.317.286-.077.388-.308.388-.591 0-1.096.012-2.192-.002-3.288-.018-1.379.069-2.76-.124-4.136-.513-3.676-2.215-6.65-5.195-8.878l-.198-.153c.55-.151 1.037-.34 1.541-.41 1.575-.219 2.481-1.289 3.257-2.512Z" clip-rule="evenodd"/>
  <path fill="#8AF5D1" fill-rule="evenodd" d="m312.869 189.893.071.001c.35.023.576.321.577.768v1.199c-.003.495-.011.916-.027 1.323-.045 1.163-.374 2.213-.999 3.128-.628.92-1.379 1.701-2.598 2.782-1.993 1.768-4.274 3.09-6.84 3.975-.578.2-1.187.379-1.927.572-.653.17-.865.601-.617 1.238.539 1.383 1.74 2 3.167 1.621l19.745-5.236c.222-.058.373-.128.5-.242.711-.636 1.224-1.257 1.58-1.96.664-1.312.799-2.73.469-4.316-.103-.489.062-.822.445-.904.381-.083.649.153.763.649.476 2.085.206 3.979-.87 5.677-.988 1.558-1.91 2.35-3.309 2.545l-.104.016c-.07.012-.142.027-.217.044l-.076.018a4.55 4.55 0 0 0-.137.034l-.859.256.305.233c2.835 2.202 4.495 5.123 5.003 8.758.101.724.13 1.359.128 2.466l-.006 1.059.007 1.052-.003 2.856c0 .344-.142.582-.442.663-.335.09-.616-.037-.802-.351-.104-.178-.125-.327-.125-.658l-.002-5.469c-.076-4.148-1.768-7.425-5.116-9.829-.374-.268-.687-.336-1.114-.221l-.611.164-14.759 3.933c-2.145.569-4.087-.469-4.802-2.561-.274-.802-.12-1.528.457-2.083l.064-.065c.222-.241.29-.488.286-.896-.003-.202-.004-.406-.006-.621l-.001-1.014.004-1.484c.001-.422.209-.676.616-.701.355-.022.611.263.644.688l.003.041v.094l-.002.079.004 1.715c0 .233-.002.44-.004.636l-.009.432c-.007.294.049.33.322.233l.291-.103c.31-.108.531-.178.768-.243.191-.052.248-.142.245-.362a63.76 63.76 0 0 1-.005-.64l.002-2.063c0-.228.005-.389.02-.549.031-.349.264-.564.609-.566.342-.002.572.205.618.556.014.11.017.206.018.393l.003 1.573-.002.426-.006.445c.001.21.04.213.255.096l.33-.176c.328-.173.65-.332.969-.48.219-.102.294-.238.288-.503l-.007-.5.001-2.332c0-.102.001-.188.004-.268l.007-.151c.025-.355.233-.574.581-.592.346-.018.578.176.644.523.018.095.025.192.027.323l.001 2.493.018-.001a.162.162 0 0 0 .064-.024l.403-.294a18.256 18.256 0 0 0 3.127-2.906c.828-.978 1.271-2.072 1.318-3.298.008-.215.013-.408.016-.653l.005-.793.006-.9c.008-.453.242-.754.606-.768Zm.499.686c-.027-.349-.216-.551-.493-.54l-.063.007c-.243.041-.397.265-.402.618l-.01 1.584-.007.402-.011.363c-.048 1.258-.504 2.384-1.353 3.386a18.49 18.49 0 0 1-3.477 3.165l-.085.063a.305.305 0 0 1-.248.041l-.059-.071v-1.678l-.001-.842-.003-.125a1.255 1.255 0 0 0-.022-.21c-.052-.278-.221-.419-.493-.405-.271.014-.422.173-.442.456a5.369 5.369 0 0 0-.011.409l-.002 2.007.009.822c.006.32-.099.511-.373.639-.422.195-.851.412-1.291.651-.326.178-.478.099-.47-.279l.005-.392.002-.921-.007-1.293a2.405 2.405 0 0 0-.013-.158c-.037-.278-.204-.429-.473-.428-.268.001-.439.159-.464.433a5.006 5.006 0 0 0-.016.295l-.003.241-.003 1.89.007.812c.003.281-.093.433-.353.504-.201.055-.39.114-.634.197l-.415.146c-.365.13-.526.026-.517-.375.009-.331.012-.658.013-1.064l-.005-1.667.003-.175-.003-.076c-.027-.352-.223-.57-.489-.553-.325.02-.478.206-.479.556l-.004 2.276.007.84c.006.482-.089.774-.394 1.068l-.086.088c-.464.501-.576 1.134-.335 1.842.691 2.02 2.555 3.017 4.626 2.468l7.59-2.015 7.78-2.082c.471-.127.829-.049 1.237.243 3.456 2.482 5.171 5.891 5.18 10.208l-.001 5.209c0 .305.018.436.106.584.153.259.368.356.637.284.229-.062.334-.238.334-.522l.004-2.405-.008-1.133.006-1.428c.002-.963-.02-1.566-.092-2.182l-.035-.265c-.515-3.689-2.228-6.632-5.166-8.829l-.2-.155.026-.128a7.9 7.9 0 0 0 .182-.052l.818-.244c.049-.014.09-.024.138-.035l.193-.043c.075-.015.147-.027.219-.037l.148-.024c1.266-.222 2.125-.986 3.057-2.455 1.055-1.664 1.319-3.518.852-5.566-.098-.426-.299-.602-.591-.54-.295.064-.42.316-.333.732l.043.219c.282 1.53.125 2.911-.523 4.193-.366.721-.89 1.356-1.614 2.002-.146.132-.318.211-.56.275l-19.745 5.237c-1.499.398-2.774-.258-3.34-1.71-.279-.718-.023-1.24.715-1.433.738-.192 1.344-.37 1.917-.568 2.548-.88 4.812-2.191 6.791-3.946 1.211-1.074 1.955-1.847 2.575-2.755.608-.892.929-1.916.973-3.052.019-.472.027-.964.028-1.571l-.001-.915-.003-.113Zm-13.517-12.187c-.653-.035-1.837 1.132-1.822 1.866.008.136.072.339.28.406.252.081.538.064.691-.181a3.187 3.187 0 0 1 1.17-1.139c.217-.121.245-.368.165-.606-.076-.232-.255-.334-.484-.346Z" clip-rule="evenodd"/>
  <path fill="#8AF5D1" fill-rule="evenodd" d="M297.956 180.259c-.015-.762 1.19-1.978 1.898-1.94l.08.008a.547.547 0 0 1 .47.388c.099.292.038.561-.198.693a3.11 3.11 0 0 0-1.144 1.113c-.159.255-.456.315-.776.213-.21-.068-.318-.259-.33-.475Zm2.31-1.498c-.063-.189-.204-.284-.419-.296-.623-.033-1.758 1.113-1.744 1.789.008.158.085.295.228.341.263.084.489.037.607-.151a3.259 3.259 0 0 1 1.196-1.164c.166-.092.21-.286.132-.519Zm20.934 4.5a2.25 2.25 0 1 1-4.5.001 2.25 2.25 0 0 1 4.5-.001Z" clip-rule="evenodd"/>
  <path fill="#84AAA3" fill-rule="evenodd" d="m199.831 61.483-7.79.42a8.717 8.717 0 0 0-6.012 2.872 8.715 8.715 0 0 0-2.211 6.286c.258 4.8 4.357 8.472 9.157 8.214l7.791-.42" clip-rule="evenodd"/>
  <path fill="#84AAA3" d="M199.784 60.607a.877.877 0 0 1 .178 1.743l-.084.008-7.791.42a7.834 7.834 0 0 0-5.404 2.58 7.837 7.837 0 0 0-1.99 5.656c.228 4.254 3.813 7.525 8.053 7.393l.182-.008 7.79-.42a.877.877 0 0 1 .179 1.743l-.085.009-7.79.42c-5.286.284-9.796-3.76-10.08-9.043a9.599 9.599 0 0 1 2.435-6.92 9.594 9.594 0 0 1 6.377-3.145l.239-.016 7.791-.42Z"/>
  <path fill="#8AF5D1" fill-rule="evenodd" d="m215.948 76.789-1.629-1.462a2.301 2.301 0 0 0-3.251.175l-1.463 1.628a4.277 4.277 0 0 1-2.952 1.413l-6.569.353a2.351 2.351 0 0 1-.224.006 8.695 8.695 0 0 1-8.929-8.224 8.688 8.688 0 0 1 2.212-6.28 8.688 8.688 0 0 1 6.006-2.873l7.688-.414 12.12-.652c4.788-.258 9.164 3.433 9.412 8.221a8.694 8.694 0 0 1-8.219 9.136l-1.116.06a4.271 4.271 0 0 1-3.086-1.087Z" clip-rule="evenodd"/>
  <path fill="#84AAA3" fill-rule="evenodd" d="m199.102 60.65 19.807-1.067c5.314-.286 10.064 3.818 10.336 9.052a9.567 9.567 0 0 1-9.049 10.057l-1.115.06a5.151 5.151 0 0 1-3.719-1.311l-1.628-1.462a1.426 1.426 0 0 0-2.014.108l-1.463 1.629a5.157 5.157 0 0 1-3.557 1.703l-6.657.357-.076.003h-.103l-.166.002a9.572 9.572 0 0 1-9.631-8.869l-.012-.187a9.57 9.57 0 0 1 9.047-10.076Zm26.401 13.71a7.808 7.808 0 0 0 1.991-5.634l-.011-.177c-.318-4.165-4.179-7.446-8.479-7.215L199.196 62.4a7.81 7.81 0 0 0-7.39 8.23 7.818 7.818 0 0 0 8.029 7.395h.098l6.673-.357c.9-.05 1.745-.453 2.347-1.124l1.462-1.628a3.179 3.179 0 0 1 4.49-.242l1.628 1.462a3.4 3.4 0 0 0 2.454.865l1.115-.06a7.81 7.81 0 0 0 5.401-2.582Zm-26.39 18.841a16.675 16.675 0 0 1-6.775.22 16.625 16.625 0 0 1-5.264-1.876 18.243 18.243 0 0 0 3.711 5.054c3.309 3.166 6.987 4.258 8.796 4.662a33.053 33.053 0 0 0-.468-8.06Z" clip-rule="evenodd"/>
  <path fill="#84AAA3" fill-rule="evenodd" d="M190.178 97.233a18.946 18.946 0 0 1-3.889-5.297c-.384-.773.461-1.577 1.214-1.156a15.559 15.559 0 0 0 4.986 1.778c2.323.407 4.45.265 6.418-.21.49-.117.978.2 1.068.696a33.784 33.784 0 0 1 .481 8.274.876.876 0 0 1-1.066.799c-3.221-.719-6.381-2.177-9.212-4.885Zm-.771-3.671-.14-.051.204.28a16.99 16.99 0 0 0 1.92 2.174c2.237 2.14 4.709 3.424 7.249 4.153l.117.032.012-.47a31.09 31.09 0 0 0-.012-1.554l-.02-.526a32.442 32.442 0 0 0-.315-3.207l-.023-.143-.291.053a17.17 17.17 0 0 1-5.57.04l-.351-.057a17.405 17.405 0 0 1-2.78-.724ZM39.65 355.583h76.391c.484 0 .877.392.877.877v42.649a.877.877 0 0 1-.877.877h-76.39a.877.877 0 0 1-.877-.877V356.46c0-.485.392-.877.877-.877Zm75.513 42.649v-40.896H40.527v40.896h74.636Z" clip-rule="evenodd"/>
  <path fill="#84AAA3" d="m108.418 310.143-.06.063a33.58 33.58 0 0 0-.692.752l-.237.268c-1.154 1.315-5.449 6.764-5.762 7.147-2.477 3.038-7.181 10.793-10.641 17.032-.502.903-1.88.348-1.615-.651l.107-.407c1.005-3.908 2.85-12.619 3.203-15.596l.1-.926c.69-6.565.932-10.517.691-13.713l-.015-.193-.205.293a63.176 63.176 0 0 0-8.965 18.954l-.155.556a63.349 63.349 0 0 0-2.23 15.08c-.028 1.04-1.522 1.173-1.734.155a118.022 118.022 0 0 0-12.698-33.783l-.113-.198-.002.067c-.157 4.755-.09 9.6.232 14.545l.073 1.061a147.465 147.465 0 0 0 2.763 19.683c.215 1.027-1.226 1.497-1.657.541a75.488 75.488 0 0 0-8.413-14.25 75.372 75.372 0 0 0-10.519-11.396l-.403-.352.116.498a104.89 104.89 0 0 0 4.209 13.634l.297.764a105.025 105.025 0 0 0 7.408 15.157c.557.939-.76 1.847-1.44.994a47.838 47.838 0 0 0-10.92-10.063 47.625 47.625 0 0 0-9.5-4.934l-.103-.04.17.407a70.559 70.559 0 0 0 9.161 15.625l.408.522a70.986 70.986 0 0 0 7.77 8.375.877.877 0 0 1-1.185 1.292 72.822 72.822 0 0 1-7.962-8.581 72.465 72.465 0 0 1-10.724-18.81.877.877 0 0 1 1.097-1.148 49.589 49.589 0 0 1 11.844 5.835 49.794 49.794 0 0 1 6.037 4.745l.371.346-.36-.72a107.304 107.304 0 0 1-3.39-7.573l-.314-.787a106.816 106.816 0 0 1-5.253-17.688c-.166-.807.773-1.377 1.412-.857a77.287 77.287 0 0 1 13.176 13.704 77.151 77.151 0 0 1 5.636 8.676l.156.282-.105-.641a149.231 149.231 0 0 1-1.454-12.082l-.077-1.032a149.87 149.87 0 0 1-.176-18.869c.046-.864 1.183-1.146 1.627-.404a119.844 119.844 0 0 1 13.162 31.308l.037.145.037-.318a64.785 64.785 0 0 1 1.671-8.745l.17-.633c2.358-8.608 6.18-15.881 10.912-22.18a.877.877 0 0 1 1.566.381l.06.372c.583 3.791.406 8.002-.45 16.136l-.086.813c-.187 1.736-.938 5.635-1.736 9.363l-.248 1.146.565-.957c2.578-4.346 5.22-8.495 6.988-10.746l3.348-4.203c1.104-1.378 2.199-2.73 2.712-3.315 1.008-1.148 1.936-2.084 2.875-2.878.6-.508 1.512-.031 1.439.751a77.19 77.19 0 0 1-3.512 16.867c-2.45 7.447-5.877 14.091-10.022 20.06a79.75 79.75 0 0 1-3.682 4.883.877.877 0 0 1-1.358-1.108 78.227 78.227 0 0 0 3.6-4.776c4.052-5.835 7.403-12.33 9.796-19.606a75.34 75.34 0 0 0 3.143-13.883l.028-.236Z"/>
  <path fill="#84AAA3" d="M123.12 330.825c.781-.176 1.371.702.912 1.358a99.3 99.3 0 0 1-10.577 12.722 99.273 99.273 0 0 1-14.644 12.278.877.877 0 0 1-.992-1.446 97.541 97.541 0 0 0 14.386-12.061 97.596 97.596 0 0 0 8.498-9.885l.516-.696-.112.03a67.077 67.077 0 0 0-10.839 3.884l-.604.28c-3.116 1.465-9.194 5.192-12.998 7.802a.876.876 0 1 1-.992-1.445l.542-.37c3.886-2.628 9.626-6.128 12.702-7.574a69.099 69.099 0 0 1 14.202-4.877Z"/>
  <path fill="#84AAA3" fill-rule="evenodd" d="M51.234 371.078a3.209 3.209 0 1 1-6.418 0 3.209 3.209 0 0 1 6.418 0Zm14.909 0a3.209 3.209 0 1 1-6.418 0 3.209 3.209 0 0 1 6.418 0Zm14.91 0a3.209 3.209 0 1 1-6.417 0 3.209 3.209 0 0 1 6.418 0Zm14.911 0a3.209 3.209 0 1 1-6.418 0 3.209 3.209 0 0 1 6.418 0Zm14.91 0a3.209 3.209 0 1 1-6.417.001 3.209 3.209 0 0 1 6.417-.001Z" clip-rule="evenodd"/>
  <path fill="#84AAA3" d="M116.04 384.82a.877.877 0 0 1 .085 1.75l-.085.003H39.65a.876.876 0 0 1-.084-1.749l.084-.004h76.39Z"/>
  <path fill="#84AAA3" fill-rule="evenodd" d="M39.65 399.109h76.391v-13.412h-76.39v13.412Z" clip-rule="evenodd"/>
</svg>
